%FSLAX24Y24*%
%MOIN*%
G70*
G01*
G75*
G04 Layer_Color=65535*
%ADD10R,0.0669X0.0709*%
%ADD11R,0.0394X0.0394*%
%ADD12R,0.0614X0.0110*%
%ADD13R,0.0110X0.0614*%
%ADD14R,0.0394X0.0394*%
%ADD15R,0.0354X0.0394*%
%ADD16R,0.0591X0.0472*%
%ADD17R,0.0591X0.0512*%
%ADD18R,0.0394X0.0354*%
%ADD19R,0.0472X0.0591*%
%ADD20R,0.0748X0.0374*%
%ADD21R,0.2717X0.2165*%
%ADD22R,0.0433X0.0394*%
%ADD23R,0.1968X0.0669*%
%ADD24C,0.0118*%
%ADD25C,0.0394*%
%ADD26C,0.0197*%
%ADD27C,0.0669*%
%ADD28C,0.0709*%
%ADD29R,0.0787X0.0787*%
%ADD30C,0.0787*%
%ADD31C,0.0315*%
%ADD32C,0.0787*%
%ADD33C,0.0098*%
%ADD34C,0.0050*%
%ADD35C,0.0100*%
%ADD36C,0.0060*%
%ADD37C,0.0047*%
%ADD38C,0.0079*%
%ADD39C,0.0071*%
%ADD40C,0.0157*%
D24*
X1339Y17087D02*
X1929D01*
Y17480D01*
X1339Y18071D02*
Y17677D01*
X1929D01*
Y18071D01*
X1634Y17677D02*
Y17874D01*
X1339Y18267D02*
X1929D01*
Y18563D01*
X1831Y18661D01*
X1437D01*
X1339Y18563D01*
Y18267D01*
X1437Y18858D02*
X1339Y18956D01*
Y19153D01*
X1437Y19251D01*
X1536D01*
X1634Y19153D01*
Y19054D01*
Y19153D01*
X1732Y19251D01*
X1831D01*
X1929Y19153D01*
Y18956D01*
X1831Y18858D01*
X3465Y17087D02*
X4055D01*
Y17480D01*
X3465Y18071D02*
Y17677D01*
X4055D01*
Y18071D01*
X3760Y17677D02*
Y17874D01*
X3465Y18267D02*
X4055D01*
Y18563D01*
X3957Y18661D01*
X3563D01*
X3465Y18563D01*
Y18267D01*
X4055Y19251D02*
Y18858D01*
X3662Y19251D01*
X3563D01*
X3465Y19153D01*
Y18956D01*
X3563Y18858D01*
X12717Y17087D02*
X13307D01*
Y17480D01*
X12717Y18071D02*
Y17677D01*
X13307D01*
Y18071D01*
X13012Y17677D02*
Y17874D01*
X12717Y18267D02*
X13307D01*
Y18563D01*
X13209Y18661D01*
X12815D01*
X12717Y18563D01*
Y18267D01*
X13307Y18858D02*
Y19054D01*
Y18956D01*
X12717D01*
X12815Y18858D01*
X15315Y17087D02*
X15906D01*
Y17480D01*
X15315Y18071D02*
Y17677D01*
X15906D01*
Y18071D01*
X15610Y17677D02*
Y17874D01*
X15315Y18267D02*
X15906D01*
Y18563D01*
X15807Y18661D01*
X15414D01*
X15315Y18563D01*
Y18267D01*
X15414Y18858D02*
X15315Y18956D01*
Y19153D01*
X15414Y19251D01*
X15807D01*
X15906Y19153D01*
Y18956D01*
X15807Y18858D01*
X15414D01*
X6220Y18465D02*
Y19055D01*
X6516D01*
X6614Y18957D01*
Y18760D01*
X6516Y18661D01*
X6220D01*
X7106Y19055D02*
X6909D01*
X6811Y18957D01*
Y18563D01*
X6909Y18465D01*
X7106D01*
X7204Y18563D01*
Y18957D01*
X7106Y19055D01*
X7401D02*
X7795D01*
X7598D01*
Y18465D01*
X7992D02*
Y18858D01*
X8188Y19055D01*
X8385Y18858D01*
Y18465D01*
Y18760D01*
X7992D01*
X8582Y18465D02*
Y19055D01*
X8877D01*
X8975Y18957D01*
Y18760D01*
X8877Y18661D01*
X8582D01*
X8779D02*
X8975Y18465D01*
X9172Y19055D02*
Y18465D01*
X9467D01*
X9566Y18563D01*
Y18957D01*
X9467Y19055D01*
X9172D01*
D33*
X13691Y13785D02*
G03*
X13691Y13785I-49J0D01*
G01*
D34*
X10987Y3902D02*
G03*
X10984Y3859I294J-43D01*
G01*
X10997Y3944D02*
G03*
X10987Y3902I295J-86D01*
G01*
X11012Y3985D02*
G03*
X10997Y3944I298J-133D01*
G01*
X11033Y4025D02*
G03*
X11012Y3985I302J-185D01*
G01*
X11059Y4063D02*
G03*
X11033Y4025I306J-243D01*
G01*
X12117D02*
G03*
X12090Y4063I-327J-200D01*
G01*
X12138Y3985D02*
G03*
X12117Y4025I-318J-142D01*
G01*
X12153Y3944D02*
G03*
X12138Y3985I-309J-91D01*
G01*
X12162Y3902D02*
G03*
X12153Y3944I-302J-44D01*
G01*
X12165Y3859D02*
G03*
X12162Y3902I-297J-0D01*
G01*
X12152Y3773D02*
G03*
X12165Y3859I-290J88D01*
G01*
X12114Y3690D02*
G03*
X12152Y3773I-292J184D01*
G01*
X12043Y3605D02*
G03*
X12114Y3690I-330J350D01*
G01*
X11934Y3528D02*
G03*
X12043Y3605I-264J489D01*
G01*
X11801Y3474D02*
G03*
X11934Y3528I-194J667D01*
G01*
X11652Y3445D02*
G03*
X11801Y3474I-74J797D01*
G01*
X11498Y3445D02*
G03*
X11652Y3445I77J831D01*
G01*
X11349Y3474D02*
G03*
X11498Y3445I220J755D01*
G01*
X11215Y3528D02*
G03*
X11349Y3474I320J592D01*
G01*
X11106Y3605D02*
G03*
X11215Y3528I359J393D01*
G01*
X11035Y3690D02*
G03*
X11106Y3605I316J194D01*
G01*
X10997Y3773D02*
G03*
X11035Y3690I321J97D01*
G01*
X10984Y3859D02*
G03*
X10997Y3773I301J0D01*
G01*
X11942Y4154D02*
G03*
X11916Y4176I-3752J-4361D01*
G01*
X11260Y4198D02*
G03*
X11234Y4176I3216J-3837D01*
G01*
X11091Y4087D02*
G03*
X11041Y4048I345J-484D01*
G01*
X11146Y4123D02*
G03*
X11091Y4087I329J-577D01*
G01*
X11207Y4154D02*
G03*
X11146Y4123I303J-669D01*
G01*
X12032Y4106D02*
G03*
X11973Y4139I-370J-579D01*
G01*
X12085Y4068D02*
G03*
X12032Y4106I-385J-483D01*
G01*
X12131Y4026D02*
G03*
X12085Y4068I-390J-390D01*
G01*
X12203Y3934D02*
G03*
X12131Y4026I-395J-235D01*
G01*
X12245Y3834D02*
G03*
X12203Y3934I-368J-95D01*
G01*
X12256Y3728D02*
G03*
X12245Y3834I-344J20D01*
G01*
X12234Y3625D02*
G03*
X12256Y3728I-334J126D01*
G01*
X12180Y3527D02*
G03*
X12234Y3625I-338J248D01*
G01*
X12073Y3419D02*
G03*
X12180Y3527I-323J430D01*
G01*
X11929Y3336D02*
G03*
X12073Y3419I-279J651D01*
G01*
X11759Y3284D02*
G03*
X11929Y3336I-166J845D01*
G01*
X11575Y3266D02*
G03*
X11759Y3284I-0J957D01*
G01*
X11391D02*
G03*
X11575Y3266I183J926D01*
G01*
X11221Y3336D02*
G03*
X11391Y3284I331J774D01*
G01*
X11077Y3419D02*
G03*
X11221Y3336I407J540D01*
G01*
X10970Y3527D02*
G03*
X11077Y3419I414J306D01*
G01*
X10916Y3625D02*
G03*
X10970Y3527I378J143D01*
G01*
X10894Y3728D02*
G03*
X10916Y3625I352J21D01*
G01*
X10904Y3834D02*
G03*
X10894Y3728I336J-86D01*
G01*
X10946Y3934D02*
G03*
X10904Y3834I335J-199D01*
G01*
X11018Y4026D02*
G03*
X10946Y3934I338J-339D01*
G01*
X10413Y4441D02*
G03*
X10512Y4476I-192J691D01*
G01*
X10307Y4419D02*
G03*
X10413Y4441I-105J785D01*
G01*
X10197Y4412D02*
G03*
X10307Y4419I-0J833D01*
G01*
X10087D02*
G03*
X10197Y4412I110J818D01*
G01*
X9981Y4441D02*
G03*
X10087Y4419I209J754D01*
G01*
X9882Y4476D02*
G03*
X9981Y4441I286J644D01*
G01*
X9742Y4746D02*
G03*
X9738Y4737I167J-68D01*
G01*
X9746Y4756D02*
G03*
X9742Y4746I159J-77D01*
G01*
X9758Y4777D02*
G03*
X9750Y4764I136J-93D01*
G01*
X9990Y4981D02*
G03*
X9924Y4944I230J-481D01*
G01*
D02*
G03*
X9864Y4897I318J-477D01*
G01*
X9864D02*
G03*
X9808Y4841I409J-464D01*
G01*
D02*
G03*
X9758Y4777I502J-441D01*
G01*
X9733Y4720D02*
G03*
X9727Y4693I293J-77D01*
G01*
X9727Y4693D02*
G03*
X9724Y4666I323J-54D01*
G01*
Y4666D02*
G03*
X9723Y4638I339J-28D01*
G01*
X10564Y4154D02*
G03*
X10538Y4176I-3753J-4362D01*
G01*
X9609Y3902D02*
G03*
X9606Y3859I294J-43D01*
G01*
X9619Y3944D02*
G03*
X9609Y3902I295J-86D01*
G01*
X9634Y3985D02*
G03*
X9619Y3944I298J-133D01*
G01*
X9655Y4025D02*
G03*
X9634Y3985I302J-185D01*
G01*
X9682Y4063D02*
G03*
X9655Y4025I306J-243D01*
G01*
X10774Y3773D02*
G03*
X10787Y3859I-290J88D01*
G01*
X10736Y3690D02*
G03*
X10774Y3773I-292J184D01*
G01*
X10665Y3605D02*
G03*
X10736Y3690I-330J350D01*
G01*
X10556Y3528D02*
G03*
X10665Y3605I-264J489D01*
G01*
X10423Y3474D02*
G03*
X10556Y3528I-194J667D01*
G01*
X10274Y3445D02*
G03*
X10423Y3474I-74J797D01*
G01*
X10120Y3445D02*
G03*
X10274Y3445I77J831D01*
G01*
X9971Y3474D02*
G03*
X10120Y3445I220J755D01*
G01*
X9837Y3528D02*
G03*
X9971Y3474I320J592D01*
G01*
X9728Y3605D02*
G03*
X9837Y3528I359J393D01*
G01*
X9657Y3690D02*
G03*
X9728Y3605I316J194D01*
G01*
X9619Y3773D02*
G03*
X9657Y3690I321J97D01*
G01*
X9606Y3859D02*
G03*
X9619Y3773I301J0D01*
G01*
X10739Y4025D02*
G03*
X10712Y4063I-327J-200D01*
G01*
X10760Y3985D02*
G03*
X10739Y4025I-318J-142D01*
G01*
X10775Y3944D02*
G03*
X10760Y3985I-309J-91D01*
G01*
X10784Y3902D02*
G03*
X10775Y3944I-302J-44D01*
G01*
X10787Y3859D02*
G03*
X10784Y3902I-297J-0D01*
G01*
X9882Y4198D02*
G03*
X9856Y4176I3216J-3837D01*
G01*
X9723Y4401D02*
G03*
X9728Y4363I325J18D01*
G01*
X9728D02*
G03*
X9735Y4331I258J43D01*
G01*
D02*
G03*
X9744Y4304I239J70D01*
G01*
D02*
G03*
X9756Y4281I189J78D01*
G01*
X9713Y4087D02*
G03*
X9663Y4048I345J-484D01*
G01*
X9768Y4123D02*
G03*
X9713Y4087I329J-577D01*
G01*
X9829Y4154D02*
G03*
X9768Y4123I303J-669D01*
G01*
X10644Y4292D02*
G03*
X10654Y4317I-210J103D01*
G01*
X10654D02*
G03*
X10662Y4345I-261J92D01*
G01*
X10662D02*
G03*
X10669Y4382I-307J73D01*
G01*
Y4382D02*
G03*
X10671Y4420I-337J38D01*
G01*
X10654Y4106D02*
G03*
X10595Y4139I-370J-579D01*
G01*
X10707Y4068D02*
G03*
X10654Y4106I-385J-483D01*
G01*
X10753Y4026D02*
G03*
X10707Y4068I-390J-390D01*
G01*
X10825Y3934D02*
G03*
X10753Y4026I-395J-235D01*
G01*
X10867Y3834D02*
G03*
X10825Y3934I-368J-95D01*
G01*
X10878Y3728D02*
G03*
X10867Y3834I-344J20D01*
G01*
X10856Y3625D02*
G03*
X10878Y3728I-334J126D01*
G01*
X10802Y3527D02*
G03*
X10856Y3625I-338J248D01*
G01*
X10695Y3419D02*
G03*
X10802Y3527I-323J430D01*
G01*
X10551Y3336D02*
G03*
X10695Y3419I-279J651D01*
G01*
X10381Y3284D02*
G03*
X10551Y3336I-166J845D01*
G01*
X10197Y3266D02*
G03*
X10381Y3284I-0J957D01*
G01*
X10013D02*
G03*
X10197Y3266I183J926D01*
G01*
X9843Y3336D02*
G03*
X10013Y3284I331J774D01*
G01*
X9699Y3419D02*
G03*
X9843Y3336I407J540D01*
G01*
X9592Y3527D02*
G03*
X9699Y3419I414J306D01*
G01*
X9538Y3625D02*
G03*
X9592Y3527I378J143D01*
G01*
X9516Y3728D02*
G03*
X9538Y3625I352J21D01*
G01*
X9526Y3834D02*
G03*
X9516Y3728I336J-86D01*
G01*
X9568Y3934D02*
G03*
X9526Y3834I335J-199D01*
G01*
X9640Y4026D02*
G03*
X9568Y3934I338J-339D01*
G01*
X11663Y4416D02*
G03*
X11749Y4430I-85J801D01*
G01*
X11575Y4412D02*
G03*
X11663Y4416I0J832D01*
G01*
X11487D02*
G03*
X11575Y4412I88J826D01*
G01*
X11401Y4430D02*
G03*
X11487Y4416I171J784D01*
G01*
X12022Y4292D02*
G03*
X12032Y4317I-210J103D01*
G01*
X12032D02*
G03*
X12040Y4345I-261J92D01*
G01*
X12040D02*
G03*
X12047Y4382I-307J73D01*
G01*
Y4382D02*
G03*
X12049Y4420I-337J38D01*
G01*
X12021Y4766D02*
G03*
X12016Y4774I-149J-84D01*
G01*
X12025Y4756D02*
G03*
X12021Y4766I-156J-76D01*
G01*
X12031Y4743D02*
G03*
X12027Y4752I-166J-64D01*
G01*
X12035Y4732D02*
G03*
X12031Y4743I-172J-54D01*
G01*
X12049Y4652D02*
G03*
X12046Y4680I-332J-14D01*
G01*
X12046D02*
G03*
X12042Y4707I-310J-39D01*
G01*
X12042D02*
G03*
X12035Y4732I-275J-59D01*
G01*
X11807Y4445D02*
G03*
X11863Y4465I-209J689D01*
G01*
X11749Y4430D02*
G03*
X11807Y4445I-163J748D01*
G01*
X11314Y4455D02*
G03*
X11371Y4437I242J695D01*
G01*
X11260Y4476D02*
G03*
X11314Y4455I279J627D01*
G01*
X10643Y4766D02*
G03*
X10638Y4774I-149J-85D01*
G01*
X10647Y4756D02*
G03*
X10643Y4766I-156J-76D01*
G01*
X10654Y4741D02*
G03*
X10650Y4751I-159J-59D01*
G01*
X10657Y4732D02*
G03*
X10654Y4741I-163J-51D01*
G01*
X10671Y4652D02*
G03*
X10668Y4680I-332J-14D01*
G01*
X10668D02*
G03*
X10664Y4707I-310J-39D01*
G01*
X10664D02*
G03*
X10657Y4732I-275J-59D01*
G01*
X11111Y4720D02*
G03*
X11105Y4693I293J-77D01*
G01*
Y4693D02*
G03*
X11102Y4666I323J-54D01*
G01*
Y4666D02*
G03*
X11101Y4638I339J-28D01*
G01*
X11120Y4746D02*
G03*
X11116Y4737I167J-68D01*
G01*
X11124Y4756D02*
G03*
X11120Y4746I159J-77D01*
G01*
X11131Y4769D02*
G03*
X11126Y4760I149J-88D01*
G01*
X11136Y4777D02*
G03*
X11131Y4769I139J-95D01*
G01*
X10611Y4810D02*
G03*
X10559Y4870I-501J-388D01*
G01*
X10559Y4870D02*
G03*
X10500Y4921I-416J-415D01*
G01*
Y4921D02*
G03*
X10437Y4963I-333J-433D01*
G01*
X10437Y4963D02*
G03*
X10370Y4995I-253J-446D01*
G01*
X11368Y4981D02*
G03*
X11302Y4944I230J-481D01*
G01*
Y4944D02*
G03*
X11242Y4897I318J-477D01*
G01*
Y4897D02*
G03*
X11186Y4841I409J-464D01*
G01*
D02*
G03*
X11136Y4777I502J-441D01*
G01*
X11989Y4810D02*
G03*
X11937Y4870I-501J-388D01*
G01*
D02*
G03*
X11878Y4921I-416J-415D01*
G01*
Y4921D02*
G03*
X11815Y4963I-333J-433D01*
G01*
Y4963D02*
G03*
X11748Y4995I-253J-446D01*
G01*
X11101Y4401D02*
G03*
X11106Y4363I325J18D01*
G01*
D02*
G03*
X11113Y4331I258J43D01*
G01*
D02*
G03*
X11122Y4304I239J70D01*
G01*
D02*
G03*
X11134Y4281I189J78D01*
G01*
X10315Y6465D02*
G03*
X10079Y6465I-118J-157D01*
G01*
X10024Y6402D02*
G03*
X10098Y6137I172J-95D01*
G01*
X10351Y6185D02*
G03*
X10369Y6402I-155J122D01*
G01*
X10354Y6425D02*
G03*
X10315Y6465I-157J-118D01*
G01*
X10369Y6402D02*
G03*
X10354Y6425I-172J-95D01*
G01*
X10039D02*
G03*
X10024Y6402I157J-118D01*
G01*
X10079Y6465D02*
G03*
X10039Y6425I118J-157D01*
G01*
X10196Y6110D02*
G03*
X10351Y6185I1J197D01*
G01*
X11401Y4430D02*
G03*
X11749Y4430I174J-92D01*
G01*
X10024Y4995D02*
G03*
X9882Y4732I173J-263D01*
G01*
X10370Y4995D02*
G03*
X10024Y4995I-173J-263D01*
G01*
X11890Y4732D02*
G03*
X11748Y4995I-315J0D01*
G01*
X11749Y4430D02*
G03*
X11401Y4430I-174J-92D01*
G01*
X11402Y4995D02*
G03*
X11260Y4732I173J-263D01*
G01*
X10512D02*
G03*
X10370Y4995I-315J0D01*
G01*
X11748D02*
G03*
X11402Y4995I-173J-263D01*
G01*
X14609Y3902D02*
G03*
X14606Y3859I294J-43D01*
G01*
X14619Y3944D02*
G03*
X14609Y3902I295J-86D01*
G01*
X14634Y3985D02*
G03*
X14619Y3944I298J-133D01*
G01*
X14655Y4025D02*
G03*
X14634Y3985I302J-185D01*
G01*
X14682Y4063D02*
G03*
X14655Y4025I306J-243D01*
G01*
X15739D02*
G03*
X15712Y4063I-327J-200D01*
G01*
X15760Y3985D02*
G03*
X15739Y4025I-318J-142D01*
G01*
X15775Y3944D02*
G03*
X15760Y3985I-309J-91D01*
G01*
X15784Y3902D02*
G03*
X15775Y3944I-302J-44D01*
G01*
X15787Y3859D02*
G03*
X15784Y3902I-297J-0D01*
G01*
X15774Y3773D02*
G03*
X15787Y3859I-290J88D01*
G01*
X15736Y3690D02*
G03*
X15774Y3773I-292J184D01*
G01*
X15665Y3605D02*
G03*
X15736Y3690I-330J350D01*
G01*
X15556Y3528D02*
G03*
X15665Y3605I-264J489D01*
G01*
X15423Y3474D02*
G03*
X15556Y3528I-194J667D01*
G01*
X15274Y3445D02*
G03*
X15423Y3474I-74J797D01*
G01*
X15120Y3445D02*
G03*
X15274Y3445I77J831D01*
G01*
X14971Y3474D02*
G03*
X15120Y3445I220J755D01*
G01*
X14837Y3528D02*
G03*
X14971Y3474I320J592D01*
G01*
X14728Y3605D02*
G03*
X14837Y3528I359J393D01*
G01*
X14657Y3690D02*
G03*
X14728Y3605I316J194D01*
G01*
X14619Y3773D02*
G03*
X14657Y3690I321J97D01*
G01*
X14606Y3859D02*
G03*
X14619Y3773I301J0D01*
G01*
X15564Y4154D02*
G03*
X15538Y4176I-3752J-4361D01*
G01*
X14882Y4198D02*
G03*
X14856Y4176I3216J-3837D01*
G01*
X14713Y4087D02*
G03*
X14663Y4048I345J-484D01*
G01*
X14768Y4123D02*
G03*
X14713Y4087I329J-577D01*
G01*
X14829Y4154D02*
G03*
X14768Y4123I303J-669D01*
G01*
X15654Y4106D02*
G03*
X15595Y4139I-370J-579D01*
G01*
X15707Y4068D02*
G03*
X15654Y4106I-385J-483D01*
G01*
X15753Y4026D02*
G03*
X15707Y4068I-390J-390D01*
G01*
X15825Y3934D02*
G03*
X15753Y4026I-395J-235D01*
G01*
X15867Y3834D02*
G03*
X15825Y3934I-368J-95D01*
G01*
X15878Y3728D02*
G03*
X15867Y3834I-344J20D01*
G01*
X15856Y3625D02*
G03*
X15878Y3728I-334J126D01*
G01*
X15802Y3527D02*
G03*
X15856Y3625I-338J248D01*
G01*
X15695Y3419D02*
G03*
X15802Y3527I-323J430D01*
G01*
X15551Y3336D02*
G03*
X15695Y3419I-279J651D01*
G01*
X15381Y3284D02*
G03*
X15551Y3336I-166J845D01*
G01*
X15197Y3266D02*
G03*
X15381Y3284I-0J957D01*
G01*
X15013D02*
G03*
X15197Y3266I183J926D01*
G01*
X14843Y3336D02*
G03*
X15013Y3284I331J774D01*
G01*
X14699Y3419D02*
G03*
X14843Y3336I407J540D01*
G01*
X14592Y3527D02*
G03*
X14699Y3419I414J306D01*
G01*
X14538Y3625D02*
G03*
X14592Y3527I378J143D01*
G01*
X14516Y3728D02*
G03*
X14538Y3625I352J21D01*
G01*
X14526Y3834D02*
G03*
X14516Y3728I336J-86D01*
G01*
X14568Y3934D02*
G03*
X14526Y3834I335J-199D01*
G01*
X14640Y4026D02*
G03*
X14568Y3934I338J-339D01*
G01*
X14035Y4441D02*
G03*
X14134Y4476I-192J691D01*
G01*
X13929Y4419D02*
G03*
X14035Y4441I-105J785D01*
G01*
X13819Y4412D02*
G03*
X13929Y4419I-0J833D01*
G01*
X13709D02*
G03*
X13819Y4412I110J818D01*
G01*
X13603Y4441D02*
G03*
X13709Y4419I209J754D01*
G01*
X13504Y4476D02*
G03*
X13603Y4441I286J644D01*
G01*
X13364Y4746D02*
G03*
X13360Y4737I167J-68D01*
G01*
X13368Y4756D02*
G03*
X13364Y4746I159J-77D01*
G01*
X13380Y4777D02*
G03*
X13372Y4764I136J-93D01*
G01*
X13612Y4981D02*
G03*
X13546Y4944I230J-481D01*
G01*
D02*
G03*
X13486Y4897I318J-477D01*
G01*
X13486D02*
G03*
X13430Y4841I409J-464D01*
G01*
D02*
G03*
X13380Y4777I502J-441D01*
G01*
X13355Y4720D02*
G03*
X13349Y4693I293J-77D01*
G01*
X13349Y4693D02*
G03*
X13346Y4666I323J-54D01*
G01*
Y4666D02*
G03*
X13345Y4638I339J-28D01*
G01*
X14186Y4154D02*
G03*
X14160Y4176I-3753J-4362D01*
G01*
X13231Y3902D02*
G03*
X13228Y3859I294J-43D01*
G01*
X13241Y3944D02*
G03*
X13231Y3902I295J-86D01*
G01*
X13256Y3985D02*
G03*
X13241Y3944I298J-133D01*
G01*
X13277Y4025D02*
G03*
X13256Y3985I302J-185D01*
G01*
X13304Y4063D02*
G03*
X13277Y4025I306J-243D01*
G01*
X14397Y3773D02*
G03*
X14409Y3859I-290J88D01*
G01*
X14358Y3690D02*
G03*
X14397Y3773I-292J184D01*
G01*
X14287Y3605D02*
G03*
X14358Y3690I-330J350D01*
G01*
X14179Y3528D02*
G03*
X14287Y3605I-264J489D01*
G01*
X14045Y3474D02*
G03*
X14179Y3528I-194J667D01*
G01*
X13896Y3445D02*
G03*
X14045Y3474I-74J797D01*
G01*
X13742Y3445D02*
G03*
X13896Y3445I77J831D01*
G01*
X13593Y3474D02*
G03*
X13742Y3445I220J755D01*
G01*
X13459Y3528D02*
G03*
X13593Y3474I320J592D01*
G01*
X13350Y3605D02*
G03*
X13459Y3528I359J393D01*
G01*
X13279Y3690D02*
G03*
X13350Y3605I316J194D01*
G01*
X13241Y3773D02*
G03*
X13279Y3690I321J97D01*
G01*
X13228Y3859D02*
G03*
X13241Y3773I301J0D01*
G01*
X14361Y4025D02*
G03*
X14334Y4063I-327J-200D01*
G01*
X14382Y3985D02*
G03*
X14361Y4025I-318J-142D01*
G01*
X14397Y3944D02*
G03*
X14382Y3985I-309J-91D01*
G01*
X14406Y3902D02*
G03*
X14397Y3944I-302J-44D01*
G01*
X14409Y3859D02*
G03*
X14406Y3902I-297J-0D01*
G01*
X13504Y4198D02*
G03*
X13478Y4176I3216J-3837D01*
G01*
X13345Y4401D02*
G03*
X13350Y4363I325J18D01*
G01*
X13350D02*
G03*
X13357Y4331I258J43D01*
G01*
D02*
G03*
X13367Y4304I239J70D01*
G01*
D02*
G03*
X13378Y4281I189J78D01*
G01*
X13335Y4087D02*
G03*
X13285Y4048I345J-484D01*
G01*
X13391Y4123D02*
G03*
X13335Y4087I329J-577D01*
G01*
X13451Y4154D02*
G03*
X13391Y4123I303J-669D01*
G01*
X14266Y4292D02*
G03*
X14276Y4317I-210J103D01*
G01*
X14276D02*
G03*
X14284Y4345I-261J92D01*
G01*
X14284D02*
G03*
X14291Y4382I-307J73D01*
G01*
Y4382D02*
G03*
X14293Y4420I-337J38D01*
G01*
X14276Y4106D02*
G03*
X14217Y4139I-370J-579D01*
G01*
X14329Y4068D02*
G03*
X14276Y4106I-385J-483D01*
G01*
X14375Y4026D02*
G03*
X14329Y4068I-390J-390D01*
G01*
X14447Y3934D02*
G03*
X14375Y4026I-395J-235D01*
G01*
X14490Y3834D02*
G03*
X14447Y3934I-368J-95D01*
G01*
X14500Y3728D02*
G03*
X14490Y3834I-344J20D01*
G01*
X14478Y3625D02*
G03*
X14500Y3728I-334J126D01*
G01*
X14424Y3527D02*
G03*
X14478Y3625I-338J248D01*
G01*
X14317Y3419D02*
G03*
X14424Y3527I-323J430D01*
G01*
X14173Y3336D02*
G03*
X14317Y3419I-279J651D01*
G01*
X14003Y3284D02*
G03*
X14173Y3336I-166J845D01*
G01*
X13819Y3266D02*
G03*
X14003Y3284I-0J957D01*
G01*
X13635D02*
G03*
X13819Y3266I183J926D01*
G01*
X13465Y3336D02*
G03*
X13635Y3284I331J774D01*
G01*
X13321Y3419D02*
G03*
X13465Y3336I407J540D01*
G01*
X13214Y3527D02*
G03*
X13321Y3419I414J306D01*
G01*
X13160Y3625D02*
G03*
X13214Y3527I378J143D01*
G01*
X13138Y3728D02*
G03*
X13160Y3625I352J21D01*
G01*
X13148Y3834D02*
G03*
X13138Y3728I336J-86D01*
G01*
X13190Y3934D02*
G03*
X13148Y3834I335J-199D01*
G01*
X13262Y4026D02*
G03*
X13190Y3934I338J-339D01*
G01*
X15285Y4416D02*
G03*
X15371Y4430I-85J801D01*
G01*
X15197Y4412D02*
G03*
X15285Y4416I0J832D01*
G01*
X15109D02*
G03*
X15197Y4412I88J826D01*
G01*
X15023Y4430D02*
G03*
X15109Y4416I171J784D01*
G01*
X15644Y4292D02*
G03*
X15654Y4317I-210J103D01*
G01*
X15654D02*
G03*
X15662Y4345I-261J92D01*
G01*
X15662D02*
G03*
X15669Y4382I-307J73D01*
G01*
Y4382D02*
G03*
X15671Y4420I-337J38D01*
G01*
X15643Y4766D02*
G03*
X15638Y4774I-149J-84D01*
G01*
X15647Y4756D02*
G03*
X15643Y4766I-156J-76D01*
G01*
X15653Y4743D02*
G03*
X15649Y4752I-166J-64D01*
G01*
X15657Y4732D02*
G03*
X15653Y4743I-172J-54D01*
G01*
X15671Y4652D02*
G03*
X15668Y4680I-332J-14D01*
G01*
X15668D02*
G03*
X15664Y4707I-310J-39D01*
G01*
X15664D02*
G03*
X15657Y4732I-275J-59D01*
G01*
X15429Y4445D02*
G03*
X15485Y4465I-209J689D01*
G01*
X15371Y4430D02*
G03*
X15429Y4445I-163J748D01*
G01*
X14936Y4455D02*
G03*
X14993Y4437I242J695D01*
G01*
X14882Y4476D02*
G03*
X14936Y4455I279J627D01*
G01*
X14265Y4766D02*
G03*
X14260Y4774I-149J-85D01*
G01*
X14270Y4756D02*
G03*
X14265Y4766I-156J-76D01*
G01*
X14276Y4741D02*
G03*
X14272Y4751I-159J-59D01*
G01*
X14279Y4732D02*
G03*
X14276Y4741I-163J-51D01*
G01*
X14293Y4652D02*
G03*
X14290Y4680I-332J-14D01*
G01*
X14290D02*
G03*
X14286Y4707I-310J-39D01*
G01*
X14286D02*
G03*
X14279Y4732I-275J-59D01*
G01*
X14733Y4720D02*
G03*
X14727Y4693I293J-77D01*
G01*
Y4693D02*
G03*
X14724Y4666I323J-54D01*
G01*
Y4666D02*
G03*
X14723Y4638I339J-28D01*
G01*
X14742Y4746D02*
G03*
X14738Y4737I167J-68D01*
G01*
X14746Y4756D02*
G03*
X14742Y4746I159J-77D01*
G01*
X14753Y4769D02*
G03*
X14748Y4760I149J-88D01*
G01*
X14758Y4777D02*
G03*
X14753Y4769I139J-95D01*
G01*
X14233Y4810D02*
G03*
X14181Y4870I-501J-388D01*
G01*
X14181Y4870D02*
G03*
X14122Y4921I-416J-415D01*
G01*
Y4921D02*
G03*
X14059Y4963I-333J-433D01*
G01*
X14059Y4963D02*
G03*
X13992Y4995I-253J-446D01*
G01*
X14990Y4981D02*
G03*
X14924Y4944I230J-481D01*
G01*
Y4944D02*
G03*
X14864Y4897I318J-477D01*
G01*
Y4897D02*
G03*
X14808Y4841I409J-464D01*
G01*
D02*
G03*
X14758Y4777I502J-441D01*
G01*
X15611Y4810D02*
G03*
X15559Y4870I-501J-388D01*
G01*
D02*
G03*
X15500Y4921I-416J-415D01*
G01*
Y4921D02*
G03*
X15437Y4963I-333J-433D01*
G01*
Y4963D02*
G03*
X15370Y4995I-253J-446D01*
G01*
X14723Y4401D02*
G03*
X14728Y4363I325J18D01*
G01*
D02*
G03*
X14735Y4331I258J43D01*
G01*
D02*
G03*
X14744Y4304I239J70D01*
G01*
D02*
G03*
X14756Y4281I189J78D01*
G01*
X13937Y6465D02*
G03*
X13701Y6465I-118J-157D01*
G01*
X13647Y6402D02*
G03*
X13720Y6137I172J-95D01*
G01*
X13974Y6185D02*
G03*
X13991Y6402I-155J122D01*
G01*
X13976Y6425D02*
G03*
X13937Y6465I-157J-118D01*
G01*
X13991Y6402D02*
G03*
X13976Y6425I-172J-95D01*
G01*
X13661D02*
G03*
X13647Y6402I157J-118D01*
G01*
X13701Y6465D02*
G03*
X13661Y6425I118J-157D01*
G01*
X13818Y6110D02*
G03*
X13974Y6185I1J197D01*
G01*
X15023Y4430D02*
G03*
X15371Y4430I174J-92D01*
G01*
X13646Y4995D02*
G03*
X13504Y4732I173J-263D01*
G01*
X13992Y4995D02*
G03*
X13646Y4995I-173J-263D01*
G01*
X15512Y4732D02*
G03*
X15370Y4995I-315J0D01*
G01*
X15371Y4430D02*
G03*
X15023Y4430I-174J-92D01*
G01*
X15024Y4995D02*
G03*
X14882Y4732I173J-263D01*
G01*
X14134D02*
G03*
X13992Y4995I-315J0D01*
G01*
X15370D02*
G03*
X15024Y4995I-173J-263D01*
G01*
X11890Y4198D02*
X11903Y4187D01*
X11916Y4176D01*
X11207Y4154D02*
X11221Y4165D01*
X11234Y4176D01*
X11018Y4026D02*
X11041Y4048D01*
X11942Y4154D02*
X11973Y4139D01*
X9737Y4732D02*
X9738Y4737D01*
X9746Y4756D02*
X9750Y4764D01*
X9990Y4981D02*
X10024Y4995D01*
X9733Y4720D02*
X9737Y4732D01*
X10512Y4198D02*
X10525Y4187D01*
X10538Y4176D01*
X9829Y4154D02*
X9843Y4165D01*
X9856Y4176D01*
X9723Y4420D02*
X9723Y4401D01*
X9640Y4026D02*
X9663Y4048D01*
X10638Y4281D02*
X10644Y4292D01*
X10564Y4154D02*
X10595Y4139D01*
X12016Y4281D02*
X12022Y4292D01*
X12013Y4777D02*
X12016Y4774D01*
X12025Y4756D02*
X12027Y4752D01*
X12049Y4652D02*
X12049Y4638D01*
X11863Y4465D02*
X11890Y4476D01*
X11371Y4437D02*
X11401Y4430D01*
X10635Y4777D02*
X10638Y4774D01*
X10647Y4756D02*
X10650Y4751D01*
X10671Y4652D02*
X10671Y4638D01*
X11111Y4720D02*
X11115Y4732D01*
X11116Y4737D01*
X11124Y4756D02*
X11126Y4760D01*
X10611Y4810D02*
X10635Y4777D01*
X11368Y4981D02*
X11402Y4995D01*
X11989Y4810D02*
X12013Y4777D01*
X11101Y4420D02*
X11101Y4401D01*
X8917Y6731D02*
Y6916D01*
Y7201D01*
Y6916D02*
X12264D01*
Y7201D01*
Y6731D02*
Y6916D01*
Y2546D02*
Y4281D01*
Y2488D02*
Y2546D01*
X8917Y7201D02*
X12264D01*
X8917D02*
Y7213D01*
X12264Y7201D02*
Y7213D01*
X8917D02*
X12264D01*
X9508Y6465D02*
X10079D01*
X8917Y4420D02*
Y6731D01*
X12264Y5992D02*
Y6071D01*
X11984Y5992D02*
X12264D01*
X11982Y6071D02*
X11984Y5992D01*
X11909Y6386D02*
X11970D01*
X11961Y6661D02*
X11968Y6465D01*
X11970Y6386D01*
X11975Y6268D01*
X11909D02*
X11975D01*
X11909Y6402D02*
Y6425D01*
X10886D02*
X11909D01*
X10886Y6402D02*
X11909D01*
Y6259D02*
Y6402D01*
Y6151D02*
Y6259D01*
X11612Y6137D02*
X11909Y6259D01*
Y6007D02*
Y6151D01*
X10886Y6402D02*
Y6425D01*
Y6137D02*
Y6402D01*
X10604Y6071D02*
X10606Y5992D01*
X10886D01*
X10604Y6071D02*
X10886D01*
X10597Y6268D02*
X10604Y6071D01*
X10886Y6465D02*
Y6661D01*
X11961D01*
X11975Y6268D02*
X11982Y6071D01*
X12264D01*
Y6731D01*
X10583Y6661D02*
X10590Y6465D01*
X10593Y6386D01*
X9508Y6661D02*
X10583D01*
X10593Y6386D02*
X10597Y6268D01*
X10234Y6137D02*
X10351Y6185D01*
X10098Y6137D02*
X10234D01*
X10196Y6110D02*
X10234Y6137D01*
X9508D02*
X10098D01*
X9508D02*
Y6402D01*
X10351Y6185D02*
X10532Y6259D01*
Y6402D01*
X9508Y6425D02*
Y6465D01*
Y6402D02*
Y6425D01*
X10039D01*
X9508Y6402D02*
X10024D01*
X10315Y6465D02*
X10590D01*
X10532Y6402D02*
Y6425D01*
X10354D02*
X10532D01*
X10369Y6402D02*
X10532D01*
X10079Y6465D02*
X10315D01*
X10039Y6425D02*
X10354D01*
X10024Y6402D02*
X10369D01*
X10532Y6386D02*
X10593D01*
X10532Y6151D02*
Y6259D01*
Y6268D02*
X10597D01*
X9508Y6465D02*
Y6661D01*
X8917Y6731D02*
X12264D01*
X10886Y6425D02*
Y6465D01*
X11968D01*
X12264Y5126D02*
Y5244D01*
Y5992D01*
X9508Y4777D02*
Y5126D01*
X12264D01*
Y4777D02*
Y5126D01*
X11134Y4281D02*
X11207Y4154D01*
X12016Y4281D02*
X12264D01*
X11942Y4154D02*
X12016Y4281D01*
X9737Y4732D02*
X9882D01*
X9508Y4638D02*
Y4777D01*
X9723Y4420D02*
Y4638D01*
X9508Y4777D02*
X9758D01*
X9508Y4638D02*
X9723D01*
X9882Y4198D02*
Y4732D01*
X8917Y4281D02*
Y4420D01*
X9756Y4281D02*
X9829Y4154D01*
X10564D02*
X10638Y4281D01*
X8917D02*
X9756D01*
X8917Y4420D02*
X9723D01*
X9350Y5992D02*
X9508D01*
X9350Y5441D02*
Y5992D01*
X9508Y5126D02*
Y5244D01*
Y5362D02*
X9611D01*
X9508D02*
Y5434D01*
X10004Y5362D02*
X10532D01*
X9508Y5992D02*
Y6137D01*
Y5629D02*
Y5992D01*
X10532Y6007D02*
Y6151D01*
X9508Y5434D02*
Y5441D01*
Y5629D01*
X10532Y5731D02*
Y6007D01*
X9611Y5362D02*
X10532Y6007D01*
X10004Y5362D02*
X10532Y5731D01*
X9508Y5629D02*
X10196Y6110D01*
X9508Y5434D02*
X10532Y6151D01*
X9611Y5362D02*
X10004D01*
X10532D02*
Y5731D01*
X9508Y5244D02*
Y5362D01*
X9350Y5441D02*
X9508D01*
X12264Y4281D02*
Y4420D01*
X10512Y4198D02*
Y4732D01*
X11890Y4198D02*
Y4732D01*
X12264Y4638D02*
Y4777D01*
Y4420D02*
Y4638D01*
X12049Y4420D02*
X12264D01*
X12049Y4638D02*
X12264D01*
X11890Y4732D02*
X12035D01*
X12049Y4420D02*
Y4638D01*
X11115Y4732D02*
X11260D01*
X10512D02*
X10657D01*
X10671Y4638D02*
X11101D01*
X10635Y4777D02*
X11136D01*
X10671Y4420D02*
Y4638D01*
X12013Y4777D02*
X12264D01*
X11101Y4420D02*
Y4638D01*
X10638Y4281D02*
X11134D01*
X11260Y4198D02*
Y4732D01*
X10886Y5362D02*
Y5434D01*
Y5629D01*
Y5362D02*
X10989D01*
X10886Y6137D02*
X11612D01*
X10886Y5629D02*
Y5992D01*
Y6071D02*
Y6137D01*
Y5992D02*
Y6071D01*
X11382Y5362D02*
X11909D01*
Y5731D01*
Y6007D01*
X10989Y5362D02*
X11909Y6007D01*
X11382Y5362D02*
X11909Y5731D01*
X10989Y5362D02*
X11382D01*
X10886Y5629D02*
X11612Y6137D01*
X10886Y5434D02*
X11909Y6151D01*
X9508Y5244D02*
X12264D01*
X8917Y2546D02*
X12264D01*
X8917D02*
Y4281D01*
Y2488D02*
Y2546D01*
Y2488D02*
X12264D01*
X10671Y4420D02*
X11101D01*
X15512Y4198D02*
X15525Y4187D01*
X15538Y4176D01*
X14829Y4154D02*
X14843Y4165D01*
X14856Y4176D01*
X14640Y4026D02*
X14663Y4048D01*
X15564Y4154D02*
X15595Y4139D01*
X13359Y4732D02*
X13360Y4737D01*
X13368Y4756D02*
X13372Y4764D01*
X13612Y4981D02*
X13646Y4995D01*
X13355Y4720D02*
X13359Y4732D01*
X14134Y4198D02*
X14147Y4187D01*
X14160Y4176D01*
X13451Y4154D02*
X13465Y4165D01*
X13478Y4176D01*
X13345Y4420D02*
X13345Y4401D01*
X13262Y4026D02*
X13285Y4048D01*
X14260Y4281D02*
X14266Y4292D01*
X14186Y4154D02*
X14217Y4139D01*
X15638Y4281D02*
X15644Y4292D01*
X15635Y4777D02*
X15638Y4774D01*
X15647Y4756D02*
X15649Y4752D01*
X15671Y4652D02*
X15671Y4638D01*
X15485Y4465D02*
X15512Y4476D01*
X14993Y4437D02*
X15023Y4430D01*
X14257Y4777D02*
X14260Y4774D01*
X14270Y4756D02*
X14272Y4751D01*
X14293Y4652D02*
X14293Y4638D01*
X14733Y4720D02*
X14737Y4732D01*
X14738Y4737D01*
X14746Y4756D02*
X14748Y4760D01*
X14233Y4810D02*
X14257Y4777D01*
X14990Y4981D02*
X15024Y4995D01*
X15611Y4810D02*
X15635Y4777D01*
X14723Y4420D02*
X14723Y4401D01*
X12539Y6731D02*
Y6916D01*
Y7201D01*
Y6916D02*
X15886D01*
Y7201D01*
Y6731D02*
Y6916D01*
Y2546D02*
Y4281D01*
Y2488D02*
Y2546D01*
X12539Y7201D02*
X15886D01*
X12539D02*
Y7213D01*
X15886Y7201D02*
Y7213D01*
X12539D02*
X15886D01*
X13130Y6465D02*
X13701D01*
X12539Y4420D02*
Y6731D01*
X15886Y5992D02*
Y6071D01*
X15606Y5992D02*
X15886D01*
X15604Y6071D02*
X15606Y5992D01*
X15532Y6386D02*
X15593D01*
X15583Y6661D02*
X15590Y6465D01*
X15593Y6386D01*
X15597Y6268D01*
X15532D02*
X15597D01*
X15532Y6402D02*
Y6425D01*
X14508D02*
X15532D01*
X14508Y6402D02*
X15532D01*
Y6259D02*
Y6402D01*
Y6151D02*
Y6259D01*
X15234Y6137D02*
X15532Y6259D01*
Y6007D02*
Y6151D01*
X14508Y6402D02*
Y6425D01*
Y6137D02*
Y6402D01*
X14226Y6071D02*
X14228Y5992D01*
X14508D01*
X14226Y6071D02*
X14508D01*
X14219Y6268D02*
X14226Y6071D01*
X14508Y6465D02*
Y6661D01*
X15583D01*
X15597Y6268D02*
X15604Y6071D01*
X15886D01*
Y6731D01*
X14205Y6661D02*
X14212Y6465D01*
X14215Y6386D01*
X13130Y6661D02*
X14205D01*
X14215Y6386D02*
X14219Y6268D01*
X13856Y6137D02*
X13974Y6185D01*
X13720Y6137D02*
X13856D01*
X13818Y6110D02*
X13856Y6137D01*
X13130D02*
X13720D01*
X13130D02*
Y6402D01*
X13974Y6185D02*
X14154Y6259D01*
Y6402D01*
X13130Y6425D02*
Y6465D01*
Y6402D02*
Y6425D01*
X13661D01*
X13130Y6402D02*
X13647D01*
X13937Y6465D02*
X14212D01*
X14154Y6402D02*
Y6425D01*
X13976D02*
X14154D01*
X13991Y6402D02*
X14154D01*
X13701Y6465D02*
X13937D01*
X13661Y6425D02*
X13976D01*
X13647Y6402D02*
X13991D01*
X14154Y6386D02*
X14215D01*
X14154Y6151D02*
Y6259D01*
Y6268D02*
X14219D01*
X13130Y6465D02*
Y6661D01*
X12539Y6731D02*
X15886D01*
X14508Y6425D02*
Y6465D01*
X15590D01*
X15886Y5126D02*
Y5244D01*
Y5992D01*
X13130Y4777D02*
Y5126D01*
X15886D01*
Y4777D02*
Y5126D01*
X14756Y4281D02*
X14829Y4154D01*
X15638Y4281D02*
X15886D01*
X15564Y4154D02*
X15638Y4281D01*
X13359Y4732D02*
X13504D01*
X13130Y4638D02*
Y4777D01*
X13345Y4420D02*
Y4638D01*
X13130Y4777D02*
X13380D01*
X13130Y4638D02*
X13345D01*
X13504Y4198D02*
Y4732D01*
X12539Y4281D02*
Y4420D01*
X13378Y4281D02*
X13451Y4154D01*
X14186D02*
X14260Y4281D01*
X12539D02*
X13378D01*
X12539Y4420D02*
X13345D01*
X12972Y5992D02*
X13130D01*
X12972Y5441D02*
Y5992D01*
X13130Y5126D02*
Y5244D01*
Y5362D02*
X13233D01*
X13130D02*
Y5434D01*
X13626Y5362D02*
X14154D01*
X13130Y5992D02*
Y6137D01*
Y5629D02*
Y5992D01*
X14154Y6007D02*
Y6151D01*
X13130Y5434D02*
Y5441D01*
Y5629D01*
X14154Y5731D02*
Y6007D01*
X13233Y5362D02*
X14154Y6007D01*
X13626Y5362D02*
X14154Y5731D01*
X13130Y5629D02*
X13818Y6110D01*
X13130Y5434D02*
X14154Y6151D01*
X13233Y5362D02*
X13626D01*
X14154D02*
Y5731D01*
X13130Y5244D02*
Y5362D01*
X12972Y5441D02*
X13130D01*
X15886Y4281D02*
Y4420D01*
X14134Y4198D02*
Y4732D01*
X15512Y4198D02*
Y4732D01*
X15886Y4638D02*
Y4777D01*
Y4420D02*
Y4638D01*
X15671Y4420D02*
X15886D01*
X15671Y4638D02*
X15886D01*
X15512Y4732D02*
X15657D01*
X15671Y4420D02*
Y4638D01*
X14737Y4732D02*
X14882D01*
X14134D02*
X14279D01*
X14293Y4638D02*
X14723D01*
X14257Y4777D02*
X14758D01*
X14293Y4420D02*
Y4638D01*
X15635Y4777D02*
X15886D01*
X14723Y4420D02*
Y4638D01*
X14260Y4281D02*
X14756D01*
X14882Y4198D02*
Y4732D01*
X14508Y5362D02*
Y5434D01*
Y5629D01*
Y5362D02*
X14611D01*
X14508Y6137D02*
X15234D01*
X14508Y5629D02*
Y5992D01*
Y6071D02*
Y6137D01*
Y5992D02*
Y6071D01*
X15004Y5362D02*
X15532D01*
Y5731D01*
Y6007D01*
X14611Y5362D02*
X15532Y6007D01*
X15004Y5362D02*
X15532Y5731D01*
X14611Y5362D02*
X15004D01*
X14508Y5629D02*
X15234Y6137D01*
X14508Y5434D02*
X15532Y6151D01*
X13130Y5244D02*
X15886D01*
X12539Y2546D02*
X15886D01*
X12539D02*
Y4281D01*
Y2488D02*
Y2546D01*
Y2488D02*
X15886D01*
X14293Y4420D02*
X14723D01*
D35*
X346Y-2228D02*
Y4898D01*
Y-2228D02*
X5543D01*
Y4898D01*
X346D02*
X5543D01*
X6796Y15251D02*
Y15745D01*
X2406D02*
X6796D01*
X2406Y15290D02*
Y15745D01*
Y13782D02*
Y14237D01*
Y13782D02*
X6796D01*
Y14276D01*
D36*
X11989Y7626D02*
X12131D01*
Y9671D01*
X11994D02*
X12131D01*
X11994Y9151D02*
Y9671D01*
Y9151D02*
X12074D01*
Y9641D01*
X12039D02*
X12074D01*
X12039Y9156D02*
Y9641D01*
Y9156D02*
X12114D01*
X11036D02*
X11111D01*
Y9641D01*
X11076D02*
X11111D01*
X11076Y9151D02*
Y9641D01*
Y9151D02*
X11156D01*
Y9671D01*
X11018D02*
X11156D01*
X11018Y7626D02*
Y9671D01*
Y7626D02*
X11161D01*
X15414D02*
X15556D01*
Y9671D01*
X15419D02*
X15556D01*
X15419Y9151D02*
Y9671D01*
Y9151D02*
X15499D01*
Y9641D01*
X15464D02*
X15499D01*
X15464Y9156D02*
Y9641D01*
Y9156D02*
X15539D01*
X14461D02*
X14536D01*
Y9641D01*
X14501D02*
X14536D01*
X14501Y9151D02*
Y9641D01*
Y9151D02*
X14581D01*
Y9671D01*
X14443D02*
X14581D01*
X14443Y7626D02*
Y9671D01*
Y7626D02*
X14586D01*
D37*
X2846Y6520D02*
Y7008D01*
X2441Y10618D02*
Y11024D01*
X2846D01*
X6457Y10618D02*
Y11024D01*
X6051D02*
X6457D01*
Y7008D02*
Y7413D01*
X6051Y7008D02*
X6457D01*
X2441D02*
Y7413D01*
Y7008D02*
X2846D01*
D38*
X3504Y5709D02*
X3661D01*
X3504Y6024D02*
X3661D01*
X9823Y7724D02*
X10335D01*
X10236Y9772D02*
Y9929D01*
X9921Y9772D02*
Y9929D01*
X12717Y13768D02*
X12913D01*
Y16406D01*
X12717D02*
X12913D01*
X1535Y20079D02*
Y20236D01*
X1850Y20079D02*
Y20236D01*
X1417Y22244D02*
X1929D01*
X15472Y20079D02*
Y20236D01*
X15787Y20079D02*
Y20236D01*
X15354Y22244D02*
X15866D01*
X12933Y20079D02*
Y20236D01*
X13248Y20079D02*
Y20236D01*
X12815Y22244D02*
X13327D01*
X3661Y20079D02*
Y20236D01*
X3976Y20079D02*
Y20236D01*
X3543Y22244D02*
X4055D01*
X4606Y19213D02*
X11299D01*
X4606D02*
Y22953D01*
X11299Y19213D02*
Y22953D01*
X9331D02*
X11299D01*
X4606D02*
X6575D01*
X9331D02*
Y25512D01*
X6575Y22953D02*
Y25512D01*
X9134D02*
X9331D01*
X6575D02*
X6772D01*
X9134D02*
Y28858D01*
X6772Y25512D02*
Y28858D01*
X9134D01*
D39*
X5814Y5997D02*
X5748Y6063D01*
X5617D01*
X5551Y5997D01*
Y5735D01*
X5617Y5669D01*
X5748D01*
X5814Y5735D01*
X5945Y5669D02*
X6076D01*
X6010D01*
Y6063D01*
X5945Y5997D01*
X8320Y9580D02*
X8386Y9646D01*
Y9777D01*
X8320Y9843D01*
X8058D01*
X7992Y9777D01*
Y9646D01*
X8058Y9580D01*
X7992Y9187D02*
Y9449D01*
X8255Y9187D01*
X8320D01*
X8386Y9252D01*
Y9383D01*
X8320Y9449D01*
X4593Y12769D02*
X4527Y12835D01*
X4396D01*
X4331Y12769D01*
Y12507D01*
X4396Y12441D01*
X4527D01*
X4593Y12507D01*
X4724Y12769D02*
X4790Y12835D01*
X4921D01*
X4987Y12769D01*
Y12703D01*
X4921Y12638D01*
X4855D01*
X4921D01*
X4987Y12572D01*
Y12507D01*
X4921Y12441D01*
X4790D01*
X4724Y12507D01*
X4613Y12139D02*
X4547Y12205D01*
X4416D01*
X4350Y12139D01*
Y11877D01*
X4416Y11811D01*
X4547D01*
X4613Y11877D01*
X4941Y11811D02*
Y12205D01*
X4744Y12008D01*
X5006D01*
X578Y7821D02*
X512Y7756D01*
Y7625D01*
X578Y7559D01*
X840D01*
X906Y7625D01*
Y7756D01*
X840Y7821D01*
X512Y8215D02*
Y7953D01*
X709D01*
X643Y8084D01*
Y8149D01*
X709Y8215D01*
X840D01*
X906Y8149D01*
Y8018D01*
X840Y7953D01*
X8320Y7769D02*
X8386Y7835D01*
Y7966D01*
X8320Y8031D01*
X8058D01*
X7992Y7966D01*
Y7835D01*
X8058Y7769D01*
X8386Y7376D02*
X8320Y7507D01*
X8189Y7638D01*
X8058D01*
X7992Y7572D01*
Y7441D01*
X8058Y7376D01*
X8123D01*
X8189Y7441D01*
Y7638D01*
X6325Y13399D02*
X6260Y13464D01*
X6129D01*
X6063Y13399D01*
Y13136D01*
X6129Y13071D01*
X6260D01*
X6325Y13136D01*
X6457Y13464D02*
X6719D01*
Y13399D01*
X6457Y13136D01*
Y13071D01*
X2979Y13359D02*
X2913Y13425D01*
X2782D01*
X2717Y13359D01*
Y13097D01*
X2782Y13032D01*
X2913D01*
X2979Y13097D01*
X3110Y13359D02*
X3176Y13425D01*
X3307D01*
X3372Y13359D01*
Y13294D01*
X3307Y13228D01*
X3372Y13163D01*
Y13097D01*
X3307Y13032D01*
X3176D01*
X3110Y13097D01*
Y13163D01*
X3176Y13228D01*
X3110Y13294D01*
Y13359D01*
X3176Y13228D02*
X3307D01*
X420Y11089D02*
X354Y11024D01*
Y10892D01*
X420Y10827D01*
X682D01*
X748Y10892D01*
Y11024D01*
X682Y11089D01*
Y11220D02*
X748Y11286D01*
Y11417D01*
X682Y11483D01*
X420D01*
X354Y11417D01*
Y11286D01*
X420Y11220D01*
X486D01*
X551Y11286D01*
Y11483D01*
X1365Y10459D02*
X1299Y10394D01*
Y10262D01*
X1365Y10197D01*
X1627D01*
X1693Y10262D01*
Y10394D01*
X1627Y10459D01*
X1693Y10590D02*
Y10722D01*
Y10656D01*
X1299D01*
X1365Y10590D01*
Y10918D02*
X1299Y10984D01*
Y11115D01*
X1365Y11181D01*
X1627D01*
X1693Y11115D01*
Y10984D01*
X1627Y10918D01*
X1365D01*
X13097Y10178D02*
X13031Y10244D01*
X12900D01*
X12835Y10178D01*
Y9916D01*
X12900Y9850D01*
X13031D01*
X13097Y9916D01*
X13228Y9850D02*
X13359D01*
X13294D01*
Y10244D01*
X13228Y10178D01*
X13556Y9850D02*
X13687D01*
X13622D01*
Y10244D01*
X13556Y10178D01*
X15604Y15139D02*
X15669Y15205D01*
Y15336D01*
X15604Y15402D01*
X15341D01*
X15276Y15336D01*
Y15205D01*
X15341Y15139D01*
X15276Y15008D02*
Y14877D01*
Y14942D01*
X15669D01*
X15604Y15008D01*
X15276Y14418D02*
Y14680D01*
X15538Y14418D01*
X15604D01*
X15669Y14483D01*
Y14614D01*
X15604Y14680D01*
X11247Y13320D02*
X11181Y13386D01*
X11050D01*
X10984Y13320D01*
Y13058D01*
X11050Y12992D01*
X11181D01*
X11247Y13058D01*
X11378Y12992D02*
X11509D01*
X11443D01*
Y13386D01*
X11378Y13320D01*
X11706D02*
X11771Y13386D01*
X11903D01*
X11968Y13320D01*
Y13255D01*
X11903Y13189D01*
X11837D01*
X11903D01*
X11968Y13123D01*
Y13058D01*
X11903Y12992D01*
X11771D01*
X11706Y13058D01*
X11010Y11273D02*
X10945Y11338D01*
X10814D01*
X10748Y11273D01*
Y11010D01*
X10814Y10945D01*
X10945D01*
X11010Y11010D01*
X11142Y10945D02*
X11273D01*
X11207D01*
Y11338D01*
X11142Y11273D01*
X11666Y10945D02*
Y11338D01*
X11470Y11142D01*
X11732D01*
X9514Y11273D02*
X9449Y11338D01*
X9318D01*
X9252Y11273D01*
Y11010D01*
X9318Y10945D01*
X9449D01*
X9514Y11010D01*
X9646Y10945D02*
X9777D01*
X9711D01*
Y11338D01*
X9646Y11273D01*
X10236Y11338D02*
X9974D01*
Y11142D01*
X10105Y11207D01*
X10170D01*
X10236Y11142D01*
Y11010D01*
X10170Y10945D01*
X10039D01*
X9974Y11010D01*
X14784Y21220D02*
X15177D01*
Y21417D01*
X15112Y21483D01*
X14849D01*
X14784Y21417D01*
Y21220D01*
X15177Y21614D02*
Y21745D01*
Y21680D01*
X14784D01*
X14849Y21614D01*
X12244Y21220D02*
X12638D01*
Y21417D01*
X12572Y21483D01*
X12310D01*
X12244Y21417D01*
Y21220D01*
X12638Y21614D02*
Y21745D01*
Y21680D01*
X12244D01*
X12310Y21614D01*
X2973Y21220D02*
X3366D01*
Y21417D01*
X3301Y21483D01*
X3038D01*
X2973Y21417D01*
Y21220D01*
X3366Y21614D02*
Y21745D01*
Y21680D01*
X2973D01*
X3038Y21614D01*
X847Y21220D02*
X1240D01*
Y21417D01*
X1175Y21483D01*
X912D01*
X847Y21417D01*
Y21220D01*
X1240Y21614D02*
Y21745D01*
Y21680D01*
X847D01*
X912Y21614D01*
X14482Y10501D02*
Y10108D01*
X14679D01*
X14744Y10173D01*
Y10436D01*
X14679Y10501D01*
X14482D01*
X15138Y10108D02*
X14875D01*
X15138Y10370D01*
Y10436D01*
X15072Y10501D01*
X14941D01*
X14875Y10436D01*
X11055Y10503D02*
Y10110D01*
X11252D01*
X11317Y10175D01*
Y10438D01*
X11252Y10503D01*
X11055D01*
X11449Y10438D02*
X11514Y10503D01*
X11645D01*
X11711Y10438D01*
Y10372D01*
X11645Y10306D01*
X11580D01*
X11645D01*
X11711Y10241D01*
Y10175D01*
X11645Y10110D01*
X11514D01*
X11449Y10175D01*
X9213Y8157D02*
X9606D01*
Y8354D01*
X9541Y8420D01*
X9278D01*
X9213Y8354D01*
Y8157D01*
X9606Y8748D02*
X9213D01*
X9410Y8551D01*
Y8813D01*
X10184Y13110D02*
X9921D01*
Y12913D01*
X10052D01*
X9921D01*
Y12717D01*
X10315Y13110D02*
Y12717D01*
X10512D01*
X10577Y12782D01*
Y12848D01*
X10512Y12913D01*
X10315D01*
X10512D01*
X10577Y12979D01*
Y13045D01*
X10512Y13110D01*
X10315D01*
X10708Y12717D02*
X10840D01*
X10774D01*
Y13110D01*
X10708Y13045D01*
X630Y5609D02*
X499D01*
X565D01*
Y5281D01*
X499Y5215D01*
X434D01*
X368Y5281D01*
X761Y5215D02*
X893D01*
X827D01*
Y5609D01*
X761Y5543D01*
X12559Y7323D02*
Y7716D01*
X12756D01*
X12821Y7651D01*
Y7520D01*
X12756Y7454D01*
X12559D01*
X12953Y7323D02*
X13084D01*
X13018D01*
Y7716D01*
X12953Y7651D01*
X8937Y7323D02*
Y7716D01*
X9134D01*
X9199Y7651D01*
Y7520D01*
X9134Y7454D01*
X8937D01*
X9593Y7323D02*
X9331D01*
X9593Y7585D01*
Y7651D01*
X9527Y7716D01*
X9396D01*
X9331Y7651D01*
X4803Y18583D02*
Y18976D01*
X5000D01*
X5066Y18911D01*
Y18779D01*
X5000Y18714D01*
X4803D01*
X4934D02*
X5066Y18583D01*
X5197D02*
X5328D01*
X5262D01*
Y18976D01*
X5197Y18911D01*
X15256Y19803D02*
X14862D01*
Y20000D01*
X14928Y20066D01*
X15059D01*
X15125Y20000D01*
Y19803D01*
Y19934D02*
X15256Y20066D01*
Y20459D02*
Y20197D01*
X14994Y20459D01*
X14928D01*
X14862Y20394D01*
Y20262D01*
X14928Y20197D01*
X12717Y19803D02*
X12323D01*
Y20000D01*
X12389Y20066D01*
X12520D01*
X12585Y20000D01*
Y19803D01*
Y19934D02*
X12717Y20066D01*
Y20459D02*
Y20197D01*
X12454Y20459D01*
X12389D01*
X12323Y20394D01*
Y20262D01*
X12389Y20197D01*
X3445Y19803D02*
X3051D01*
Y20000D01*
X3117Y20066D01*
X3248D01*
X3314Y20000D01*
Y19803D01*
Y19934D02*
X3445Y20066D01*
Y20459D02*
Y20197D01*
X3183Y20459D01*
X3117D01*
X3051Y20394D01*
Y20262D01*
X3117Y20197D01*
X1319Y19803D02*
X925D01*
Y20000D01*
X991Y20066D01*
X1122D01*
X1188Y20000D01*
Y19803D01*
Y19934D02*
X1319Y20066D01*
Y20459D02*
Y20197D01*
X1057Y20459D01*
X991D01*
X925Y20394D01*
Y20262D01*
X991Y20197D01*
X2244Y5669D02*
Y6063D01*
X2441D01*
X2506Y5997D01*
Y5866D01*
X2441Y5800D01*
X2244D01*
X2375D02*
X2506Y5669D01*
X2638Y5997D02*
X2703Y6063D01*
X2834D01*
X2900Y5997D01*
Y5932D01*
X2834Y5866D01*
X2769D01*
X2834D01*
X2900Y5800D01*
Y5735D01*
X2834Y5669D01*
X2703D01*
X2638Y5735D01*
X9606Y9457D02*
X9213D01*
Y9653D01*
X9278Y9719D01*
X9410D01*
X9475Y9653D01*
Y9457D01*
Y9588D02*
X9606Y9719D01*
Y10047D02*
X9213D01*
X9410Y9850D01*
Y10113D01*
X2008Y11575D02*
Y11247D01*
X2073Y11181D01*
X2205D01*
X2270Y11247D01*
Y11575D01*
X2401Y11181D02*
X2533D01*
X2467D01*
Y11575D01*
X2401Y11509D01*
X13819Y15402D02*
X13491D01*
X13425Y15336D01*
Y15205D01*
X13491Y15139D01*
X13819D01*
X13425Y14746D02*
Y15008D01*
X13688Y14746D01*
X13753D01*
X13819Y14811D01*
Y14942D01*
X13753Y15008D01*
X3661Y16299D02*
Y16233D01*
X3793Y16102D01*
X3924Y16233D01*
Y16299D01*
X3793Y16102D02*
Y15906D01*
X4055D02*
X4186D01*
X4121D01*
Y16299D01*
X4055Y16233D01*
D40*
X9331Y2212D02*
Y1425D01*
X9724D01*
X9855Y1556D01*
Y1688D01*
X9724Y1819D01*
X9331D01*
X9724D01*
X9855Y1950D01*
Y2081D01*
X9724Y2212D01*
X9331D01*
X10118Y1425D02*
Y1950D01*
X10380Y2212D01*
X10643Y1950D01*
Y1425D01*
Y1819D01*
X10118D01*
X10905Y2212D02*
X11430D01*
X11167D01*
Y1425D01*
X11692D02*
Y1556D01*
X11823D01*
Y1425D01*
X11692D01*
X12756D02*
Y2212D01*
X13018Y1950D01*
X13281Y2212D01*
Y1425D01*
X13543D02*
Y1950D01*
X13805Y2212D01*
X14068Y1950D01*
Y1425D01*
Y1819D01*
X13543D01*
X14330Y2212D02*
X14593D01*
X14461D01*
Y1425D01*
X14330D01*
X14593D01*
X14986D02*
Y2212D01*
X15511Y1425D01*
Y2212D01*
X9390Y709D02*
X9915D01*
X10964D02*
X11489D01*
X11226Y971D02*
Y446D01*
X13091Y709D02*
X13615D01*
X14665D02*
X15190D01*
X14927Y971D02*
Y446D01*
M02*
