%FSLAX24Y24*%
%MOIN*%
G70*
G01*
G75*
G04 Layer_Physical_Order=2*
G04 Layer_Color=16711680*
%ADD10R,0.0669X0.0709*%
%ADD11R,0.0394X0.0394*%
%ADD12R,0.0614X0.0110*%
%ADD13R,0.0110X0.0614*%
%ADD14R,0.0394X0.0394*%
%ADD15R,0.0354X0.0394*%
%ADD16R,0.0591X0.0472*%
%ADD17R,0.0591X0.0512*%
%ADD18R,0.0394X0.0354*%
%ADD19R,0.0472X0.0591*%
%ADD20R,0.0748X0.0374*%
%ADD21R,0.2717X0.2165*%
%ADD22R,0.0433X0.0394*%
%ADD23R,0.1968X0.0669*%
%ADD24C,0.0118*%
%ADD25C,0.0394*%
%ADD26C,0.0197*%
%ADD27C,0.0669*%
%ADD28C,0.0709*%
%ADD29R,0.0787X0.0787*%
%ADD30C,0.0787*%
%ADD31C,0.0315*%
%ADD32C,0.0787*%
G36*
X16063Y276D02*
Y79D01*
X79D01*
Y6849D01*
X128Y6854D01*
X132Y6837D01*
X184Y6759D01*
X262Y6707D01*
X354Y6688D01*
X446Y6707D01*
X525Y6759D01*
X577Y6837D01*
X626Y6827D01*
Y6575D01*
X372Y6321D01*
X296Y6223D01*
X248Y6108D01*
X232Y5984D01*
Y3386D01*
X248Y3262D01*
X296Y3148D01*
X372Y3049D01*
X1356Y2065D01*
X1455Y1989D01*
X1570Y1941D01*
X1693Y1925D01*
X11496D01*
X11619Y1941D01*
X11734Y1989D01*
X11833Y2065D01*
X15337Y5569D01*
X15413Y5667D01*
X15460Y5782D01*
X15477Y5906D01*
Y7953D01*
X15460Y8076D01*
X15413Y8191D01*
X15337Y8290D01*
X12839Y10788D01*
Y11220D01*
Y11811D01*
Y12402D01*
X12822Y12525D01*
X12775Y12640D01*
X12699Y12739D01*
X12600Y12814D01*
X12486Y12862D01*
X12362Y12878D01*
X12239Y12862D01*
X12124Y12814D01*
X12025Y12739D01*
X11950Y12640D01*
X11902Y12525D01*
X11886Y12402D01*
Y11811D01*
Y11220D01*
Y10591D01*
X11902Y10467D01*
X11950Y10352D01*
X12025Y10254D01*
X14523Y7755D01*
Y6103D01*
X11299Y2878D01*
X5338D01*
Y5081D01*
X5380Y5144D01*
X5398Y5236D01*
X5380Y5328D01*
X5328Y5407D01*
X5250Y5459D01*
X5157Y5477D01*
X5065Y5459D01*
X4987Y5407D01*
X4935Y5328D01*
X4917Y5236D01*
X4935Y5144D01*
X4977Y5081D01*
Y2878D01*
X2471D01*
Y3062D01*
X2488Y3075D01*
X2554Y3162D01*
X2596Y3262D01*
X2610Y3370D01*
X2596Y3478D01*
X2554Y3579D01*
X2488Y3665D01*
X2401Y3731D01*
X2301Y3773D01*
X2193Y3787D01*
X2085Y3773D01*
X1984Y3731D01*
X1898Y3665D01*
X1832Y3579D01*
X1790Y3478D01*
X1776Y3370D01*
X1790Y3262D01*
X1832Y3162D01*
X1898Y3075D01*
X1915Y3062D01*
Y2919D01*
X1869Y2900D01*
X1185Y3583D01*
Y5787D01*
X1439Y6041D01*
X1515Y6140D01*
X1563Y6255D01*
X1579Y6378D01*
Y9055D01*
X3111Y10586D01*
X6496D01*
X7261Y9821D01*
X7360Y9745D01*
X7475Y9697D01*
X7598Y9681D01*
X7722Y9697D01*
X7837Y9745D01*
X7935Y9821D01*
X8011Y9919D01*
X8059Y10034D01*
X8075Y10157D01*
X8059Y10281D01*
X8011Y10396D01*
X7935Y10494D01*
X7030Y11400D01*
X6931Y11476D01*
X6816Y11523D01*
X6693Y11540D01*
X5417D01*
Y11853D01*
X5459Y11916D01*
X5477Y12008D01*
X5459Y12100D01*
X5407Y12178D01*
X5328Y12230D01*
X5236Y12249D01*
X5144Y12230D01*
X5066Y12178D01*
X5014Y12100D01*
X4995Y12008D01*
X5014Y11916D01*
X5056Y11853D01*
Y11540D01*
X4826D01*
Y12248D01*
X5035Y12457D01*
X5121D01*
X5183Y12415D01*
X5276Y12397D01*
X5368Y12415D01*
X5446Y12467D01*
X5498Y12546D01*
X5516Y12638D01*
X5498Y12730D01*
X5446Y12808D01*
X5368Y12860D01*
X5276Y12879D01*
X5183Y12860D01*
X5121Y12818D01*
X4961D01*
X4892Y12805D01*
X4833Y12766D01*
X4518Y12451D01*
X4479Y12392D01*
X4465Y12323D01*
Y11540D01*
X2913D01*
X2790Y11523D01*
X2675Y11476D01*
X2576Y11400D01*
X765Y9589D01*
X690Y9490D01*
X642Y9375D01*
X626Y9252D01*
Y8739D01*
X582Y8715D01*
X565Y8726D01*
X472Y8745D01*
X380Y8726D01*
X342Y8701D01*
X298Y8724D01*
Y21713D01*
X1318Y22734D01*
X6556D01*
X7563Y21726D01*
X7531Y21648D01*
X7516Y21535D01*
X7531Y21422D01*
X7574Y21317D01*
X7644Y21227D01*
X7734Y21157D01*
X7840Y21114D01*
X7953Y21099D01*
X8066Y21114D01*
X8171Y21157D01*
X8262Y21227D01*
X8331Y21317D01*
X8375Y21422D01*
X8390Y21535D01*
X8375Y21648D01*
X8331Y21754D01*
X8262Y21844D01*
X8171Y21914D01*
X8066Y21957D01*
X7953Y21972D01*
X7840Y21957D01*
X7762Y21925D01*
X6780Y22907D01*
X6799Y22953D01*
X16063D01*
Y276D01*
D02*
G37*
%LPC*%
G36*
X1693Y4787D02*
X1585Y4773D01*
X1484Y4731D01*
X1398Y4665D01*
X1332Y4579D01*
X1290Y4478D01*
X1276Y4370D01*
X1290Y4262D01*
X1332Y4162D01*
X1398Y4075D01*
X1484Y4009D01*
X1585Y3967D01*
X1693Y3953D01*
X1801Y3967D01*
X1901Y4009D01*
X1988Y4075D01*
X2054Y4162D01*
X2096Y4262D01*
X2110Y4370D01*
X2096Y4478D01*
X2054Y4579D01*
X1988Y4665D01*
X1901Y4731D01*
X1801Y4773D01*
X1693Y4787D01*
D02*
G37*
G36*
X3125Y4320D02*
X2743D01*
Y3938D01*
X2806Y3947D01*
X2912Y3990D01*
X3003Y4060D01*
X3073Y4151D01*
X3116Y4257D01*
X3125Y4320D01*
D02*
G37*
G36*
X2643D02*
X2261D01*
X2269Y4257D01*
X2313Y4151D01*
X2383Y4060D01*
X2474Y3990D01*
X2579Y3947D01*
X2643Y3938D01*
Y4320D01*
D02*
G37*
G36*
Y4802D02*
X2579Y4794D01*
X2474Y4750D01*
X2383Y4680D01*
X2313Y4589D01*
X2269Y4484D01*
X2261Y4420D01*
X2643D01*
Y4802D01*
D02*
G37*
G36*
X3693Y4787D02*
X3585Y4773D01*
X3484Y4731D01*
X3398Y4665D01*
X3332Y4579D01*
X3290Y4478D01*
X3276Y4370D01*
X3290Y4262D01*
X3332Y4162D01*
X3398Y4075D01*
X3484Y4009D01*
X3585Y3967D01*
X3693Y3953D01*
X3801Y3967D01*
X3901Y4009D01*
X3988Y4075D01*
X4054Y4162D01*
X4096Y4262D01*
X4110Y4370D01*
X4096Y4478D01*
X4054Y4579D01*
X3988Y4665D01*
X3901Y4731D01*
X3801Y4773D01*
X3693Y4787D01*
D02*
G37*
G36*
X2743Y4802D02*
Y4420D01*
X3125D01*
X3116Y4484D01*
X3073Y4589D01*
X3003Y4680D01*
X2912Y4750D01*
X2806Y4794D01*
X2743Y4802D01*
D02*
G37*
G36*
X3193Y3787D02*
X3085Y3773D01*
X2984Y3731D01*
X2898Y3665D01*
X2832Y3579D01*
X2790Y3478D01*
X2776Y3370D01*
X2790Y3262D01*
X2832Y3162D01*
X2898Y3075D01*
X2984Y3009D01*
X3085Y2967D01*
X3193Y2953D01*
X3301Y2967D01*
X3401Y3009D01*
X3488Y3075D01*
X3554Y3162D01*
X3596Y3262D01*
X3610Y3370D01*
X3596Y3478D01*
X3554Y3579D01*
X3488Y3665D01*
X3401Y3731D01*
X3301Y3773D01*
X3193Y3787D01*
D02*
G37*
G36*
X4945Y1598D02*
X4802Y1584D01*
X4665Y1542D01*
X4538Y1475D01*
X4427Y1384D01*
X4336Y1273D01*
X4269Y1146D01*
X4227Y1009D01*
X4213Y866D01*
X4227Y723D01*
X4269Y586D01*
X4336Y460D01*
X4427Y349D01*
X4538Y258D01*
X4665Y190D01*
X4802Y148D01*
X4945Y134D01*
X5088Y148D01*
X5225Y190D01*
X5351Y258D01*
X5462Y349D01*
X5553Y460D01*
X5621Y586D01*
X5663Y723D01*
X5677Y866D01*
X5663Y1009D01*
X5621Y1146D01*
X5553Y1273D01*
X5462Y1384D01*
X5351Y1475D01*
X5225Y1542D01*
X5088Y1584D01*
X4945Y1598D01*
D02*
G37*
G36*
X945D02*
X802Y1584D01*
X665Y1542D01*
X538Y1475D01*
X427Y1384D01*
X336Y1273D01*
X269Y1146D01*
X227Y1009D01*
X213Y866D01*
X227Y723D01*
X269Y586D01*
X336Y460D01*
X427Y349D01*
X538Y258D01*
X665Y190D01*
X802Y148D01*
X945Y134D01*
X1088Y148D01*
X1225Y190D01*
X1351Y258D01*
X1462Y349D01*
X1553Y460D01*
X1621Y586D01*
X1663Y723D01*
X1677Y866D01*
X1663Y1009D01*
X1621Y1146D01*
X1553Y1273D01*
X1462Y1384D01*
X1351Y1475D01*
X1225Y1542D01*
X1088Y1584D01*
X945Y1598D01*
D02*
G37*
G36*
X15669Y4811D02*
X14724D01*
Y3866D01*
X15669D01*
Y4811D01*
D02*
G37*
G36*
X12047D02*
X11102D01*
Y3866D01*
X12047D01*
Y4811D01*
D02*
G37*
G36*
X4193Y3787D02*
X4085Y3773D01*
X3984Y3731D01*
X3898Y3665D01*
X3832Y3579D01*
X3790Y3478D01*
X3776Y3370D01*
X3790Y3262D01*
X3832Y3162D01*
X3898Y3075D01*
X3984Y3009D01*
X4085Y2967D01*
X4193Y2953D01*
X4301Y2967D01*
X4401Y3009D01*
X4488Y3075D01*
X4554Y3162D01*
X4596Y3262D01*
X4610Y3370D01*
X4596Y3478D01*
X4554Y3579D01*
X4488Y3665D01*
X4401Y3731D01*
X4301Y3773D01*
X4193Y3787D01*
D02*
G37*
G36*
X10147Y6257D02*
X9705D01*
X9716Y6178D01*
X9766Y6058D01*
X9845Y5955D01*
X9948Y5876D01*
X10068Y5826D01*
X10147Y5816D01*
Y6257D01*
D02*
G37*
G36*
X6436Y21485D02*
X6034D01*
Y21084D01*
X6103Y21093D01*
X6213Y21139D01*
X6308Y21211D01*
X6381Y21306D01*
X6427Y21417D01*
X6436Y21485D01*
D02*
G37*
G36*
X5934D02*
X5533D01*
X5542Y21417D01*
X5587Y21306D01*
X5660Y21211D01*
X5755Y21139D01*
X5866Y21093D01*
X5934Y21084D01*
Y21485D01*
D02*
G37*
G36*
X13869Y6798D02*
Y6357D01*
X14310D01*
X14300Y6436D01*
X14250Y6556D01*
X14171Y6659D01*
X14068Y6738D01*
X13948Y6788D01*
X13869Y6798D01*
D02*
G37*
G36*
X6034Y21987D02*
Y21585D01*
X6436D01*
X6427Y21654D01*
X6381Y21765D01*
X6308Y21859D01*
X6213Y21932D01*
X6103Y21978D01*
X6034Y21987D01*
D02*
G37*
G36*
X5934D02*
X5866Y21978D01*
X5755Y21932D01*
X5660Y21859D01*
X5587Y21765D01*
X5542Y21654D01*
X5533Y21585D01*
X5934D01*
Y21987D01*
D02*
G37*
G36*
X9921Y21972D02*
X9808Y21957D01*
X9703Y21914D01*
X9612Y21844D01*
X9543Y21754D01*
X9499Y21648D01*
X9484Y21535D01*
X9499Y21422D01*
X9515Y21385D01*
X8967Y20836D01*
X8928Y20778D01*
X8914Y20709D01*
Y17281D01*
X8872Y17218D01*
X8854Y17126D01*
X8872Y17034D01*
X8924Y16956D01*
X9002Y16903D01*
X9094Y16885D01*
X9187Y16903D01*
X9265Y16956D01*
X9317Y17034D01*
X9335Y17126D01*
X9317Y17218D01*
X9275Y17281D01*
Y20634D01*
X9770Y21129D01*
X9808Y21114D01*
X9921Y21099D01*
X10034Y21114D01*
X10140Y21157D01*
X10230Y21227D01*
X10300Y21317D01*
X10343Y21422D01*
X10358Y21535D01*
X10343Y21648D01*
X10300Y21754D01*
X10230Y21844D01*
X10140Y21914D01*
X10034Y21957D01*
X9921Y21972D01*
D02*
G37*
G36*
X14310Y6257D02*
X13869D01*
Y5816D01*
X13948Y5826D01*
X14068Y5876D01*
X14171Y5955D01*
X14250Y6058D01*
X14300Y6178D01*
X14310Y6257D01*
D02*
G37*
G36*
X13769D02*
X13328D01*
X13338Y6178D01*
X13388Y6058D01*
X13467Y5955D01*
X13570Y5876D01*
X13690Y5826D01*
X13769Y5816D01*
Y6257D01*
D02*
G37*
G36*
X10688D02*
X10247D01*
Y5816D01*
X10326Y5826D01*
X10446Y5876D01*
X10549Y5955D01*
X10628Y6058D01*
X10678Y6178D01*
X10688Y6257D01*
D02*
G37*
G36*
X13769Y6798D02*
X13690Y6788D01*
X13570Y6738D01*
X13467Y6659D01*
X13388Y6556D01*
X13338Y6436D01*
X13328Y6357D01*
X13769D01*
Y6798D01*
D02*
G37*
G36*
X10247D02*
Y6357D01*
X10688D01*
X10678Y6436D01*
X10628Y6556D01*
X10549Y6659D01*
X10446Y6738D01*
X10326Y6788D01*
X10247Y6798D01*
D02*
G37*
G36*
X10147D02*
X10068Y6788D01*
X9948Y6738D01*
X9845Y6659D01*
X9766Y6556D01*
X9716Y6436D01*
X9705Y6357D01*
X10147D01*
Y6798D01*
D02*
G37*
%LPD*%
D24*
X6614Y22874D02*
X7953Y21535D01*
X1260Y22874D02*
X6614D01*
X157Y21772D02*
X1260Y22874D01*
X157Y7126D02*
X354Y6929D01*
X157Y7126D02*
Y21772D01*
D25*
X2193Y2413D02*
Y3370D01*
D26*
X9094Y17126D02*
Y20709D01*
X9921Y21535D01*
X4961Y12638D02*
X5276D01*
X4646Y12323D02*
X4961Y12638D01*
X4646Y11063D02*
Y12323D01*
X5236Y11063D02*
Y12008D01*
X472Y8504D02*
X1063D01*
X5157Y2441D02*
Y5236D01*
D27*
X4193Y3370D02*
D03*
X3693Y4370D02*
D03*
X3193Y3370D02*
D03*
X2693Y4370D02*
D03*
X2193Y3370D02*
D03*
X1693Y4370D02*
D03*
D28*
X9921Y21535D02*
D03*
X7953D02*
D03*
X5984D02*
D03*
D29*
X11575Y4339D02*
D03*
X15197D02*
D03*
D30*
X10197Y6307D02*
D03*
X13819D02*
D03*
D31*
X1673Y22559D02*
D03*
X15610D02*
D03*
X13071D02*
D03*
X3799D02*
D03*
X4528Y5236D02*
D03*
X5157D02*
D03*
X7598Y10157D02*
D03*
X8189Y8937D02*
D03*
Y8307D02*
D03*
X1850Y7087D02*
D03*
X4173Y12283D02*
D03*
X3232D02*
D03*
X1417Y14098D02*
D03*
Y15748D02*
D03*
X1850Y16220D02*
D03*
X4646D02*
D03*
X7441D02*
D03*
X7874Y15787D02*
D03*
Y14134D02*
D03*
X7008Y13268D02*
D03*
X6063Y16220D02*
D03*
X3189D02*
D03*
X2283Y13232D02*
D03*
X6890Y12638D02*
D03*
Y12008D02*
D03*
X1024Y10709D02*
D03*
X551Y10551D02*
D03*
X5236Y12008D02*
D03*
X5276Y12638D02*
D03*
X9094Y17126D02*
D03*
X354Y6929D02*
D03*
X13268Y8071D02*
D03*
Y7480D02*
D03*
X10079Y7480D02*
D03*
X14764Y12402D02*
D03*
X14764Y12992D02*
D03*
Y13583D02*
D03*
X10228Y11701D02*
D03*
X10795D02*
D03*
X12362Y11220D02*
D03*
Y11811D02*
D03*
Y12402D02*
D03*
X13228D02*
D03*
Y11811D02*
D03*
Y11220D02*
D03*
X472Y8504D02*
D03*
D32*
X12362Y10591D02*
X15000Y7953D01*
Y5906D02*
Y7953D01*
X11496Y2402D02*
X15000Y5906D01*
X1693Y2402D02*
X11496D01*
X709Y3386D02*
X1693Y2402D01*
X709Y3386D02*
Y5984D01*
X12362Y10591D02*
Y11220D01*
Y11811D01*
Y12402D01*
X709Y5984D02*
X1102Y6378D01*
Y9252D01*
X2913Y11063D01*
X4646D01*
X5236D01*
X6693D01*
X7598Y10157D01*
M02*
