%FSLAX24Y24*%
%MOIN*%
G70*
G01*
G75*
G04 Layer_Physical_Order=1*
G04 Layer_Color=255*
%ADD10R,0.0669X0.0709*%
%ADD11R,0.0394X0.0394*%
%ADD12R,0.0614X0.0110*%
%ADD13R,0.0110X0.0614*%
%ADD14R,0.0394X0.0394*%
%ADD15R,0.0354X0.0394*%
%ADD16R,0.0591X0.0472*%
%ADD17R,0.0591X0.0512*%
%ADD18R,0.0394X0.0354*%
%ADD19R,0.0472X0.0591*%
%ADD20R,0.0748X0.0374*%
%ADD21R,0.2717X0.2165*%
%ADD22R,0.0433X0.0394*%
%ADD23R,0.1968X0.0669*%
%ADD24C,0.0118*%
%ADD25C,0.0394*%
%ADD26C,0.0197*%
%ADD27C,0.0669*%
%ADD28C,0.0709*%
%ADD29R,0.0787X0.0787*%
%ADD30C,0.0787*%
%ADD31C,0.0315*%
D10*
X11575Y7830D02*
D03*
Y9444D02*
D03*
X15000Y7830D02*
D03*
Y9444D02*
D03*
D11*
X4528Y5866D02*
D03*
X5157D02*
D03*
X6378Y12638D02*
D03*
X5748D02*
D03*
X6378Y12008D02*
D03*
X5748D02*
D03*
X3780Y13268D02*
D03*
X4409D02*
D03*
X5669D02*
D03*
X5039D02*
D03*
D12*
X2213Y7539D02*
D03*
Y7736D02*
D03*
Y7933D02*
D03*
Y8130D02*
D03*
Y8327D02*
D03*
Y8524D02*
D03*
Y8720D02*
D03*
Y8917D02*
D03*
Y9114D02*
D03*
Y9311D02*
D03*
Y9508D02*
D03*
Y9705D02*
D03*
Y9902D02*
D03*
Y10098D02*
D03*
Y10295D02*
D03*
Y10492D02*
D03*
X6685D02*
D03*
Y10295D02*
D03*
Y10098D02*
D03*
Y9902D02*
D03*
Y9705D02*
D03*
Y9508D02*
D03*
Y9311D02*
D03*
Y9114D02*
D03*
Y8917D02*
D03*
Y8720D02*
D03*
Y8524D02*
D03*
Y8327D02*
D03*
Y8130D02*
D03*
Y7933D02*
D03*
Y7736D02*
D03*
Y7539D02*
D03*
D13*
X2972Y11252D02*
D03*
X3169D02*
D03*
X3366D02*
D03*
X3563D02*
D03*
X3760D02*
D03*
X3957D02*
D03*
X4154D02*
D03*
X4350D02*
D03*
X4547D02*
D03*
X4744D02*
D03*
X4941D02*
D03*
X5138D02*
D03*
X5335D02*
D03*
X5531D02*
D03*
X5728D02*
D03*
X5925D02*
D03*
Y6780D02*
D03*
X5728D02*
D03*
X5531D02*
D03*
X5335D02*
D03*
X5138D02*
D03*
X4941D02*
D03*
X4744D02*
D03*
X4547D02*
D03*
X4350D02*
D03*
X4154D02*
D03*
X3957D02*
D03*
X3760D02*
D03*
X3563D02*
D03*
X3366D02*
D03*
X3169D02*
D03*
X2972D02*
D03*
D14*
X7598Y8937D02*
D03*
Y9567D02*
D03*
X1299Y9134D02*
D03*
Y9764D02*
D03*
Y7874D02*
D03*
Y8504D02*
D03*
X7598Y8307D02*
D03*
Y7677D02*
D03*
X11457Y12331D02*
D03*
Y11701D02*
D03*
X9567Y12331D02*
D03*
Y11701D02*
D03*
D15*
X3917Y5866D02*
D03*
X3248D02*
D03*
D16*
X551Y9094D02*
D03*
Y9961D02*
D03*
X13268Y9496D02*
D03*
Y8630D02*
D03*
X14764Y15402D02*
D03*
Y14535D02*
D03*
D17*
X10079Y8098D02*
D03*
Y8846D02*
D03*
X1673Y21870D02*
D03*
Y21122D02*
D03*
X15610Y21870D02*
D03*
Y21122D02*
D03*
X13071Y21870D02*
D03*
Y21122D02*
D03*
X3799Y21870D02*
D03*
Y21122D02*
D03*
D18*
X10079Y10185D02*
D03*
Y9516D02*
D03*
X1693Y19823D02*
D03*
Y20492D02*
D03*
X15630Y19823D02*
D03*
Y20492D02*
D03*
X13091Y19823D02*
D03*
Y20492D02*
D03*
X3819Y19823D02*
D03*
Y20492D02*
D03*
D19*
X12362Y13110D02*
D03*
X13228D02*
D03*
D20*
X13642Y14189D02*
D03*
Y15984D02*
D03*
D21*
X11201Y15087D02*
D03*
D22*
X10217Y12331D02*
D03*
X10807D02*
D03*
D23*
X6378Y14764D02*
D03*
X2835D02*
D03*
D24*
X1673Y21870D02*
Y22559D01*
X1693Y20492D02*
Y21102D01*
X15630Y20492D02*
Y21102D01*
X15610Y21870D02*
Y22559D01*
X13091Y20492D02*
Y21102D01*
X13071Y21870D02*
Y22559D01*
X3819Y20492D02*
Y21102D01*
X3799Y21870D02*
Y22559D01*
X1693Y4370D02*
Y4764D01*
X2205Y5276D01*
X3701D01*
X3917Y5492D01*
Y5866D01*
X3193Y3370D02*
X3720Y3898D01*
X4547Y5886D02*
Y6780D01*
X4744Y6280D02*
Y6780D01*
Y6280D02*
X5157Y5866D01*
X4154Y6102D02*
Y6780D01*
X3917Y5866D02*
X4154Y6102D01*
X4528Y5236D02*
Y5866D01*
X3693Y4370D02*
X5000D01*
X5728Y5098D01*
Y6780D01*
X4806Y3898D02*
X5925Y5017D01*
X3720Y3898D02*
X4806D01*
X5925Y5017D02*
Y6780D01*
X5157Y5236D02*
Y5866D01*
X6685Y9311D02*
X7343D01*
X7598Y9567D01*
Y10157D01*
X6685Y9114D02*
X7421D01*
X7598Y8937D01*
X8189D01*
X6685Y8130D02*
X7421D01*
X7598Y8307D01*
X8189D01*
X6685Y7933D02*
X7343D01*
X7598Y7677D01*
Y8307D02*
Y8937D01*
X1713Y8917D02*
X2213D01*
X1299Y8504D02*
X1713Y8917D01*
X1299Y7638D02*
Y7874D01*
X571Y9114D02*
X2213D01*
X2559Y17835D02*
X11575D01*
X2213Y10492D02*
Y12551D01*
X3366Y11252D02*
Y11676D01*
X1752Y10295D02*
X2213D01*
X1654Y10394D02*
X1752Y10295D01*
X1654Y10394D02*
Y12832D01*
X2213Y10098D02*
X2213Y10098D01*
X1670Y10098D02*
X2213D01*
X1457Y10312D02*
X1670Y10098D01*
X1457Y10312D02*
Y12750D01*
X1693Y17525D02*
Y19823D01*
X3819Y19373D02*
Y19823D01*
X11575Y17835D02*
X13091Y19350D01*
Y19823D01*
X2641Y17638D02*
X13898D01*
X15630Y19370D01*
Y19823D01*
X4547Y11252D02*
Y13130D01*
X4409Y13268D02*
X4547Y13130D01*
X4409Y13268D02*
Y13858D01*
X3504Y14764D02*
X4409Y13858D01*
X4744Y11252D02*
Y12972D01*
X5039Y13268D01*
Y14094D01*
X5709Y14764D01*
X4350Y11252D02*
Y12106D01*
X4173Y12283D02*
X4350Y12106D01*
X1024Y14019D02*
X3366Y11676D01*
X1024Y14019D02*
Y16021D01*
X2641Y17638D01*
X827Y13937D02*
Y16102D01*
X630Y13855D02*
Y16184D01*
X433Y13774D02*
Y16265D01*
X827Y13937D02*
X2213Y12551D01*
X827Y16102D02*
X2559Y17835D01*
X630Y13855D02*
X1654Y12832D01*
X630Y16184D02*
X3819Y19373D01*
X433Y13774D02*
X1457Y12750D01*
X433Y16265D02*
X1693Y17525D01*
X6378Y12638D02*
X6890D01*
X6378Y12008D02*
X6890D01*
X6378D02*
Y12638D01*
X1181Y9882D02*
Y10551D01*
X1024Y10709D02*
X1181Y10551D01*
X630Y9882D02*
X1181D01*
X1181Y9882D02*
X1181Y9882D01*
X1299Y9764D01*
X551Y9961D02*
Y10551D01*
X5276Y12638D02*
X5748D01*
X4941Y12303D02*
X5276Y12638D01*
X4941Y11252D02*
Y12303D01*
X5531Y11252D02*
Y11791D01*
X5748Y12008D01*
X5236D02*
X5748D01*
X354Y6929D02*
X748Y6535D01*
X2008D01*
X3071Y7598D01*
X5197D01*
X5531Y7264D01*
Y6780D02*
Y7264D01*
X11186Y9444D02*
X11575D01*
X10445Y10185D02*
X11186Y9444D01*
X10079Y10185D02*
X10445D01*
X10079Y8846D02*
Y9516D01*
Y7480D02*
Y8098D01*
X2047Y5866D02*
X3248D01*
X1142Y4961D02*
X2047Y5866D01*
X1142Y3780D02*
Y4961D01*
Y3780D02*
X1551Y3370D01*
X2193D01*
X1299Y7638D02*
X1850Y7087D01*
X472Y8504D02*
X472Y8504D01*
X1299D01*
D25*
X1417Y14098D02*
X3232Y12283D01*
X1417Y14098D02*
Y15787D01*
X1850Y16220D01*
X7441D01*
X7874Y15787D01*
Y14134D02*
Y15787D01*
X7008Y13268D02*
X7874Y14134D01*
X5669Y13268D02*
X7008D01*
X3232Y12283D02*
X3780D01*
X4173D01*
X11575Y4339D02*
Y7830D01*
X15000Y4535D02*
X15197Y4339D01*
X15000Y4535D02*
Y7830D01*
X13268Y9496D02*
X14948D01*
X11627D02*
X13268D01*
Y6858D02*
Y8630D01*
Y6858D02*
X13819Y6307D01*
X15386Y15402D02*
X15591Y15197D01*
X14764Y15402D02*
X15386D01*
X14764D02*
Y15787D01*
X14567Y15984D02*
X14764Y15787D01*
X13642Y15984D02*
X14567D01*
X13642Y14189D02*
X14417D01*
X14764Y14535D01*
Y12402D02*
Y14535D01*
X13268Y9496D02*
Y10039D01*
X15591Y12362D01*
Y15197D01*
X12362Y13110D02*
Y14370D01*
X11693Y13110D02*
X12362D01*
X11457Y12874D02*
X11693Y13110D01*
X11457Y12331D02*
Y12874D01*
X13228Y13110D02*
X13642Y13524D01*
Y14189D01*
X13228Y11220D02*
Y13110D01*
X12362Y11220D02*
Y11811D01*
Y12402D01*
Y13110D01*
D26*
X3780Y12283D02*
Y13268D01*
Y12283D02*
X3780Y12283D01*
X7598Y7677D02*
X8465D01*
X8740Y7953D01*
Y12008D01*
X9063Y12331D01*
X9094Y13386D02*
X9567Y12913D01*
X9094Y13386D02*
Y17126D01*
X9567Y12331D02*
Y12331D01*
Y12913D01*
X9063Y12331D02*
X9567D01*
X10217D01*
X10807Y12331D02*
X11457D01*
X9567Y11701D02*
X10228D01*
X10795D02*
X11457D01*
D27*
X4193Y3370D02*
D03*
X3693Y4370D02*
D03*
X3193Y3370D02*
D03*
X2693Y4370D02*
D03*
X2193Y3370D02*
D03*
X1693Y4370D02*
D03*
D28*
X9921Y21535D02*
D03*
X7953D02*
D03*
X5984D02*
D03*
D29*
X11575Y4339D02*
D03*
X15197D02*
D03*
D30*
X10197Y6307D02*
D03*
X13819D02*
D03*
D31*
X1673Y22559D02*
D03*
X15610D02*
D03*
X13071D02*
D03*
X3799D02*
D03*
X4528Y5236D02*
D03*
X5157D02*
D03*
X7598Y10157D02*
D03*
X8189Y8937D02*
D03*
Y8307D02*
D03*
X1850Y7087D02*
D03*
X4173Y12283D02*
D03*
X3232D02*
D03*
X1417Y14098D02*
D03*
Y15748D02*
D03*
X1850Y16220D02*
D03*
X4646D02*
D03*
X7441D02*
D03*
X7874Y15787D02*
D03*
Y14134D02*
D03*
X7008Y13268D02*
D03*
X6063Y16220D02*
D03*
X3189D02*
D03*
X2283Y13232D02*
D03*
X6890Y12638D02*
D03*
Y12008D02*
D03*
X1024Y10709D02*
D03*
X551Y10551D02*
D03*
X5236Y12008D02*
D03*
X5276Y12638D02*
D03*
X9094Y17126D02*
D03*
X354Y6929D02*
D03*
X13268Y8071D02*
D03*
Y7480D02*
D03*
X10079Y7480D02*
D03*
X14764Y12402D02*
D03*
X14764Y12992D02*
D03*
Y13583D02*
D03*
X10228Y11701D02*
D03*
X10795D02*
D03*
X12362Y11220D02*
D03*
Y11811D02*
D03*
Y12402D02*
D03*
X13228D02*
D03*
Y11811D02*
D03*
Y11220D02*
D03*
X472Y8504D02*
D03*
M02*
