%FSLAX24Y24*%
%MOIN*%
G70*
G01*
G75*
G04 Layer_Color=2752767*
%ADD10R,0.0669X0.0709*%
%ADD11R,0.0394X0.0394*%
%ADD12R,0.0614X0.0110*%
%ADD13R,0.0110X0.0614*%
%ADD14R,0.0394X0.0394*%
%ADD15R,0.0354X0.0394*%
%ADD16R,0.0591X0.0472*%
%ADD17R,0.0591X0.0512*%
%ADD18R,0.0394X0.0354*%
%ADD19R,0.0472X0.0591*%
%ADD20R,0.0748X0.0374*%
%ADD21R,0.2717X0.2165*%
%ADD22R,0.0433X0.0394*%
%ADD23R,0.1968X0.0669*%
%ADD24C,0.0118*%
%ADD25C,0.0394*%
%ADD26C,0.0197*%
%ADD27C,0.0669*%
%ADD28C,0.0709*%
%ADD29R,0.0787X0.0787*%
%ADD30C,0.0787*%
%ADD31C,0.0315*%
%ADD32C,0.0787*%
%ADD33C,0.0098*%
%ADD34C,0.0050*%
%ADD35C,0.0100*%
%ADD36C,0.0060*%
%ADD37C,0.0047*%
%ADD38C,0.0079*%
%ADD39C,0.0071*%
%ADD40C,0.0157*%
%ADD41R,0.0749X0.0789*%
%ADD42R,0.0474X0.0474*%
%ADD43R,0.0694X0.0190*%
%ADD44R,0.0190X0.0694*%
%ADD45R,0.0474X0.0474*%
%ADD46R,0.0434X0.0474*%
%ADD47R,0.0671X0.0552*%
%ADD48R,0.0671X0.0592*%
%ADD49R,0.0474X0.0434*%
%ADD50R,0.0552X0.0671*%
%ADD51R,0.0828X0.0454*%
%ADD52R,0.2797X0.2245*%
%ADD53R,0.0513X0.0474*%
%ADD54R,0.2048X0.0749*%
%ADD55C,0.0080*%
%ADD56C,0.0749*%
%ADD57C,0.0789*%
%ADD58R,0.0867X0.0867*%
%ADD59C,0.0867*%
%ADD60C,0.0395*%
%ADD61C,0.0033*%
%ADD62C,0.0150*%
%ADD63C,0.0160*%
D35*
X48775Y8186D02*
Y8786D01*
X49074D01*
X49174Y8686D01*
Y8486D01*
X49074Y8386D01*
X48775D01*
X48974D02*
X49174Y8186D01*
X49474D02*
X49674D01*
X49774Y8286D01*
Y8486D01*
X49674Y8586D01*
X49474D01*
X49374Y8486D01*
Y8286D01*
X49474Y8186D01*
X49974Y8586D02*
Y8286D01*
X50074Y8186D01*
X50374D01*
Y8586D01*
X50574Y8186D02*
Y8586D01*
X50874D01*
X50974Y8486D01*
Y8186D01*
X51574Y8786D02*
Y8186D01*
X51274D01*
X51174Y8286D01*
Y8486D01*
X51274Y8586D01*
X51574D01*
X48775Y6686D02*
Y7286D01*
X49074D01*
X49174Y7186D01*
Y6986D01*
X49074Y6886D01*
X48775D01*
X48974D02*
X49174Y6686D01*
X49474D02*
X49674D01*
X49774Y6786D01*
Y6986D01*
X49674Y7086D01*
X49474D01*
X49374Y6986D01*
Y6786D01*
X49474Y6686D01*
X49974Y7086D02*
Y6786D01*
X50074Y6686D01*
X50374D01*
Y7086D01*
X50574Y6686D02*
Y7086D01*
X50874D01*
X50974Y6986D01*
Y6686D01*
X51574Y7286D02*
Y6686D01*
X51274D01*
X51174Y6786D01*
Y6986D01*
X51274Y7086D01*
X51574D01*
X48775Y5186D02*
Y5786D01*
X49074D01*
X49174Y5686D01*
Y5486D01*
X49074Y5386D01*
X48775D01*
X48974D02*
X49174Y5186D01*
X49474D02*
X49674D01*
X49774Y5286D01*
Y5486D01*
X49674Y5586D01*
X49474D01*
X49374Y5486D01*
Y5286D01*
X49474Y5186D01*
X49974Y5586D02*
Y5286D01*
X50074Y5186D01*
X50374D01*
Y5586D01*
X50574Y5186D02*
Y5586D01*
X50874D01*
X50974Y5486D01*
Y5186D01*
X51574Y5786D02*
Y5186D01*
X51274D01*
X51174Y5286D01*
Y5486D01*
X51274Y5586D01*
X51574D01*
X48775Y3686D02*
Y4286D01*
X49074D01*
X49174Y4186D01*
Y3986D01*
X49074Y3886D01*
X48775D01*
X48974D02*
X49174Y3686D01*
X49474D02*
X49674D01*
X49774Y3786D01*
Y3986D01*
X49674Y4086D01*
X49474D01*
X49374Y3986D01*
Y3786D01*
X49474Y3686D01*
X49974Y4086D02*
Y3786D01*
X50074Y3686D01*
X50374D01*
Y4086D01*
X50574Y3686D02*
Y4086D01*
X50874D01*
X50974Y3986D01*
Y3686D01*
X51574Y4286D02*
Y3686D01*
X51274D01*
X51174Y3786D01*
Y3986D01*
X51274Y4086D01*
X51574D01*
X48775Y2186D02*
Y2786D01*
X49074D01*
X49174Y2686D01*
Y2486D01*
X49074Y2386D01*
X48775D01*
X48974D02*
X49174Y2186D01*
X49474D02*
X49674D01*
X49774Y2286D01*
Y2486D01*
X49674Y2586D01*
X49474D01*
X49374Y2486D01*
Y2286D01*
X49474Y2186D01*
X49974Y2586D02*
Y2286D01*
X50074Y2186D01*
X50374D01*
Y2586D01*
X50574Y2186D02*
Y2586D01*
X50874D01*
X50974Y2486D01*
Y2186D01*
X51574Y2786D02*
Y2186D01*
X51274D01*
X51174Y2286D01*
Y2486D01*
X51274Y2586D01*
X51574D01*
X43716Y8186D02*
Y8786D01*
X44016D01*
X44116Y8686D01*
Y8486D01*
X44016Y8386D01*
X43716D01*
X44316Y8786D02*
X44715D01*
X44516D01*
Y8186D01*
X44915Y8786D02*
Y8186D01*
Y8486D01*
X45315D01*
Y8786D01*
Y8186D01*
X43716Y6686D02*
Y7286D01*
X44016D01*
X44116Y7186D01*
Y6986D01*
X44016Y6886D01*
X43716D01*
X44316Y7286D02*
X44715D01*
X44516D01*
Y6686D01*
X44915Y7286D02*
Y6686D01*
Y6986D01*
X45315D01*
Y7286D01*
Y6686D01*
X43716Y5186D02*
Y5786D01*
X44016D01*
X44116Y5686D01*
Y5486D01*
X44016Y5386D01*
X43716D01*
X44316Y5786D02*
X44715D01*
X44516D01*
Y5186D01*
X44915Y5786D02*
Y5186D01*
Y5486D01*
X45315D01*
Y5786D01*
Y5186D01*
X43716Y3686D02*
Y4286D01*
X44016D01*
X44116Y4186D01*
Y3986D01*
X44016Y3886D01*
X43716D01*
X44316Y4286D02*
X44715D01*
X44516D01*
Y3686D01*
X44915Y4286D02*
Y3686D01*
Y3986D01*
X45315D01*
Y4286D01*
Y3686D01*
X43716Y2186D02*
Y2786D01*
X44016D01*
X44116Y2686D01*
Y2486D01*
X44016Y2386D01*
X43716D01*
X44316Y2786D02*
X44715D01*
X44516D01*
Y2186D01*
X44915Y2786D02*
Y2186D01*
Y2486D01*
X45315D01*
Y2786D01*
Y2186D01*
X30260Y8686D02*
X30360Y8786D01*
X30560D01*
X30660Y8686D01*
Y8586D01*
X30560Y8486D01*
X30460D01*
X30560D01*
X30660Y8386D01*
Y8286D01*
X30560Y8186D01*
X30360D01*
X30260Y8286D01*
X30959Y8086D02*
X31059Y8186D01*
Y8286D01*
X30959D01*
Y8186D01*
X31059D01*
X30959Y8086D01*
X30860Y7986D01*
X31459Y8686D02*
X31559Y8786D01*
X31759D01*
X31859Y8686D01*
Y8586D01*
X31759Y8486D01*
X31659D01*
X31759D01*
X31859Y8386D01*
Y8286D01*
X31759Y8186D01*
X31559D01*
X31459Y8286D01*
X32059Y8686D02*
X32159Y8786D01*
X32359D01*
X32459Y8686D01*
Y8286D01*
X32359Y8186D01*
X32159D01*
X32059Y8286D01*
Y8686D01*
X32659D02*
X32759Y8786D01*
X32959D01*
X33059Y8686D01*
Y8286D01*
X32959Y8186D01*
X32759D01*
X32659Y8286D01*
Y8686D01*
X33259Y8186D02*
Y8586D01*
X33359D01*
X33459Y8486D01*
Y8186D01*
Y8486D01*
X33559Y8586D01*
X33659Y8486D01*
Y8186D01*
X33859D02*
Y8586D01*
X33959D01*
X34058Y8486D01*
Y8186D01*
Y8486D01*
X34158Y8586D01*
X34258Y8486D01*
Y8186D01*
X35258D02*
X35058Y8386D01*
Y8586D01*
X35258Y8786D01*
X35558Y8186D02*
X35758D01*
X35658D01*
Y8786D01*
X35558Y8686D01*
X36458Y8186D02*
X36058D01*
X36458Y8586D01*
Y8686D01*
X36358Y8786D01*
X36158D01*
X36058Y8686D01*
X36658Y8286D02*
X36758Y8186D01*
X36958D01*
X37058Y8286D01*
Y8686D01*
X36958Y8786D01*
X36758D01*
X36658Y8686D01*
Y8586D01*
X36758Y8486D01*
X37058D01*
X37357Y8086D02*
X37457Y8186D01*
Y8286D01*
X37357D01*
Y8186D01*
X37457D01*
X37357Y8086D01*
X37257Y7986D01*
X37857Y8286D02*
X37957Y8186D01*
X38157D01*
X38257Y8286D01*
Y8686D01*
X38157Y8786D01*
X37957D01*
X37857Y8686D01*
Y8586D01*
X37957Y8486D01*
X38257D01*
X38857Y8186D02*
X38457D01*
X38857Y8586D01*
Y8686D01*
X38757Y8786D01*
X38557D01*
X38457Y8686D01*
X39057Y8186D02*
Y8586D01*
X39157D01*
X39257Y8486D01*
Y8186D01*
Y8486D01*
X39357Y8586D01*
X39457Y8486D01*
Y8186D01*
X39657D02*
X39857D01*
X39757D01*
Y8586D01*
X39657D01*
X40157Y8186D02*
X40356D01*
X40256D01*
Y8786D01*
X40157D01*
X40656Y8186D02*
X40856Y8386D01*
Y8586D01*
X40656Y8786D01*
X30260Y6686D02*
X30460D01*
X30360D01*
Y7286D01*
X30260Y7186D01*
X30860Y6586D02*
X30959Y6686D01*
Y6786D01*
X30860D01*
Y6686D01*
X30959D01*
X30860Y6586D01*
X30760Y6486D01*
X31759Y6686D02*
X31359D01*
X31759Y7086D01*
Y7186D01*
X31659Y7286D01*
X31459D01*
X31359Y7186D01*
X31959D02*
X32059Y7286D01*
X32259D01*
X32359Y7186D01*
Y6786D01*
X32259Y6686D01*
X32059D01*
X31959Y6786D01*
Y7186D01*
X32559D02*
X32659Y7286D01*
X32859D01*
X32959Y7186D01*
Y6786D01*
X32859Y6686D01*
X32659D01*
X32559Y6786D01*
Y7186D01*
X33159Y6686D02*
Y7086D01*
X33259D01*
X33359Y6986D01*
Y6686D01*
Y6986D01*
X33459Y7086D01*
X33559Y6986D01*
Y6686D01*
X33759D02*
Y7086D01*
X33859D01*
X33959Y6986D01*
Y6686D01*
Y6986D01*
X34058Y7086D01*
X34158Y6986D01*
Y6686D01*
X35158D02*
X34958Y6886D01*
Y7086D01*
X35158Y7286D01*
X35758Y6686D02*
Y7286D01*
X35458Y6986D01*
X35858D01*
X36058Y7286D02*
X36458D01*
Y7186D01*
X36058Y6786D01*
Y6686D01*
X36758Y6586D02*
X36858Y6686D01*
Y6786D01*
X36758D01*
Y6686D01*
X36858D01*
X36758Y6586D01*
X36658Y6486D01*
X37657Y6686D02*
X37257D01*
X37657Y7086D01*
Y7186D01*
X37557Y7286D01*
X37357D01*
X37257Y7186D01*
X38157Y6686D02*
Y7286D01*
X37857Y6986D01*
X38257D01*
X38457Y6686D02*
Y7086D01*
X38557D01*
X38657Y6986D01*
Y6686D01*
Y6986D01*
X38757Y7086D01*
X38857Y6986D01*
Y6686D01*
X39057D02*
X39257D01*
X39157D01*
Y7086D01*
X39057D01*
X39557Y6686D02*
X39757D01*
X39657D01*
Y7286D01*
X39557D01*
X40057Y6686D02*
X40256Y6886D01*
Y7086D01*
X40057Y7286D01*
X30260Y5186D02*
X30460D01*
X30360D01*
Y5786D01*
X30260Y5686D01*
X30860Y5086D02*
X30959Y5186D01*
Y5286D01*
X30860D01*
Y5186D01*
X30959D01*
X30860Y5086D01*
X30760Y4986D01*
X31359Y5686D02*
X31459Y5786D01*
X31659D01*
X31759Y5686D01*
Y5286D01*
X31659Y5186D01*
X31459D01*
X31359Y5286D01*
Y5686D01*
X31959D02*
X32059Y5786D01*
X32259D01*
X32359Y5686D01*
Y5286D01*
X32259Y5186D01*
X32059D01*
X31959Y5286D01*
Y5686D01*
X32559D02*
X32659Y5786D01*
X32859D01*
X32959Y5686D01*
Y5286D01*
X32859Y5186D01*
X32659D01*
X32559Y5286D01*
Y5686D01*
X33159Y5186D02*
Y5586D01*
X33259D01*
X33359Y5486D01*
Y5186D01*
Y5486D01*
X33459Y5586D01*
X33559Y5486D01*
Y5186D01*
X33759D02*
Y5586D01*
X33859D01*
X33959Y5486D01*
Y5186D01*
Y5486D01*
X34058Y5586D01*
X34158Y5486D01*
Y5186D01*
X35158D02*
X34958Y5386D01*
Y5586D01*
X35158Y5786D01*
X35458Y5686D02*
X35558Y5786D01*
X35758D01*
X35858Y5686D01*
Y5586D01*
X35758Y5486D01*
X35658D01*
X35758D01*
X35858Y5386D01*
Y5286D01*
X35758Y5186D01*
X35558D01*
X35458Y5286D01*
X36058D02*
X36158Y5186D01*
X36358D01*
X36458Y5286D01*
Y5686D01*
X36358Y5786D01*
X36158D01*
X36058Y5686D01*
Y5586D01*
X36158Y5486D01*
X36458D01*
X36758Y5086D02*
X36858Y5186D01*
Y5286D01*
X36758D01*
Y5186D01*
X36858D01*
X36758Y5086D01*
X36658Y4986D01*
X37257Y5686D02*
X37357Y5786D01*
X37557D01*
X37657Y5686D01*
Y5586D01*
X37557Y5486D01*
X37457D01*
X37557D01*
X37657Y5386D01*
Y5286D01*
X37557Y5186D01*
X37357D01*
X37257Y5286D01*
X37857Y5786D02*
X38257D01*
Y5686D01*
X37857Y5286D01*
Y5186D01*
X38457D02*
Y5586D01*
X38557D01*
X38657Y5486D01*
Y5186D01*
Y5486D01*
X38757Y5586D01*
X38857Y5486D01*
Y5186D01*
X39057D02*
X39257D01*
X39157D01*
Y5586D01*
X39057D01*
X39557Y5186D02*
X39757D01*
X39657D01*
Y5786D01*
X39557D01*
X40057Y5186D02*
X40256Y5386D01*
Y5586D01*
X40057Y5786D01*
X30260Y4186D02*
X30360Y4286D01*
X30560D01*
X30660Y4186D01*
Y3786D01*
X30560Y3686D01*
X30360D01*
X30260Y3786D01*
Y4186D01*
X30959Y3586D02*
X31059Y3686D01*
Y3786D01*
X30959D01*
Y3686D01*
X31059D01*
X30959Y3586D01*
X30860Y3486D01*
X31459Y3786D02*
X31559Y3686D01*
X31759D01*
X31859Y3786D01*
Y4186D01*
X31759Y4286D01*
X31559D01*
X31459Y4186D01*
Y4086D01*
X31559Y3986D01*
X31859D01*
X32059Y4186D02*
X32159Y4286D01*
X32359D01*
X32459Y4186D01*
Y3786D01*
X32359Y3686D01*
X32159D01*
X32059Y3786D01*
Y4186D01*
X32659D02*
X32759Y4286D01*
X32959D01*
X33059Y4186D01*
Y3786D01*
X32959Y3686D01*
X32759D01*
X32659Y3786D01*
Y4186D01*
X33259Y3686D02*
Y4086D01*
X33359D01*
X33459Y3986D01*
Y3686D01*
Y3986D01*
X33559Y4086D01*
X33659Y3986D01*
Y3686D01*
X33859D02*
Y4086D01*
X33959D01*
X34058Y3986D01*
Y3686D01*
Y3986D01*
X34158Y4086D01*
X34258Y3986D01*
Y3686D01*
X35258D02*
X35058Y3886D01*
Y4086D01*
X35258Y4286D01*
X35558Y4186D02*
X35658Y4286D01*
X35858D01*
X35958Y4186D01*
Y4086D01*
X35858Y3986D01*
X35758D01*
X35858D01*
X35958Y3886D01*
Y3786D01*
X35858Y3686D01*
X35658D01*
X35558Y3786D01*
X36558Y4286D02*
X36158D01*
Y3986D01*
X36358Y4086D01*
X36458D01*
X36558Y3986D01*
Y3786D01*
X36458Y3686D01*
X36258D01*
X36158Y3786D01*
X36858Y3586D02*
X36958Y3686D01*
Y3786D01*
X36858D01*
Y3686D01*
X36958D01*
X36858Y3586D01*
X36758Y3486D01*
X37657Y3686D02*
Y4286D01*
X37357Y3986D01*
X37757D01*
X37957Y4186D02*
X38057Y4286D01*
X38257D01*
X38357Y4186D01*
Y4086D01*
X38257Y3986D01*
X38157D01*
X38257D01*
X38357Y3886D01*
Y3786D01*
X38257Y3686D01*
X38057D01*
X37957Y3786D01*
X38557Y3686D02*
Y4086D01*
X38657D01*
X38757Y3986D01*
Y3686D01*
Y3986D01*
X38857Y4086D01*
X38957Y3986D01*
Y3686D01*
X39157D02*
X39357D01*
X39257D01*
Y4086D01*
X39157D01*
X39657Y3686D02*
X39857D01*
X39757D01*
Y4286D01*
X39657D01*
X40157Y3686D02*
X40356Y3886D01*
Y4086D01*
X40157Y4286D01*
X30260Y2686D02*
X30360Y2786D01*
X30560D01*
X30660Y2686D01*
Y2286D01*
X30560Y2186D01*
X30360D01*
X30260Y2286D01*
Y2686D01*
X30959Y2086D02*
X31059Y2186D01*
Y2286D01*
X30959D01*
Y2186D01*
X31059D01*
X30959Y2086D01*
X30860Y1986D01*
X31759Y2186D02*
Y2786D01*
X31459Y2486D01*
X31859D01*
X32059Y2686D02*
X32159Y2786D01*
X32359D01*
X32459Y2686D01*
Y2286D01*
X32359Y2186D01*
X32159D01*
X32059Y2286D01*
Y2686D01*
X32659D02*
X32759Y2786D01*
X32959D01*
X33059Y2686D01*
Y2286D01*
X32959Y2186D01*
X32759D01*
X32659Y2286D01*
Y2686D01*
X33259Y2186D02*
Y2586D01*
X33359D01*
X33459Y2486D01*
Y2186D01*
Y2486D01*
X33559Y2586D01*
X33659Y2486D01*
Y2186D01*
X33859D02*
Y2586D01*
X33959D01*
X34058Y2486D01*
Y2186D01*
Y2486D01*
X34158Y2586D01*
X34258Y2486D01*
Y2186D01*
X35258D02*
X35058Y2386D01*
Y2586D01*
X35258Y2786D01*
X35558Y2186D02*
X35758D01*
X35658D01*
Y2786D01*
X35558Y2686D01*
X36458Y2786D02*
X36058D01*
Y2486D01*
X36258Y2586D01*
X36358D01*
X36458Y2486D01*
Y2286D01*
X36358Y2186D01*
X36158D01*
X36058Y2286D01*
X36758Y2086D02*
X36858Y2186D01*
Y2286D01*
X36758D01*
Y2186D01*
X36858D01*
X36758Y2086D01*
X36658Y1986D01*
X37257Y2786D02*
X37657D01*
Y2686D01*
X37257Y2286D01*
Y2186D01*
X38257Y2786D02*
X37857D01*
Y2486D01*
X38057Y2586D01*
X38157D01*
X38257Y2486D01*
Y2286D01*
X38157Y2186D01*
X37957D01*
X37857Y2286D01*
X38457Y2186D02*
Y2586D01*
X38557D01*
X38657Y2486D01*
Y2186D01*
Y2486D01*
X38757Y2586D01*
X38857Y2486D01*
Y2186D01*
X39057D02*
X39257D01*
X39157D01*
Y2586D01*
X39057D01*
X39557Y2186D02*
X39757D01*
X39657D01*
Y2786D01*
X39557D01*
X40057Y2186D02*
X40256Y2386D01*
Y2586D01*
X40057Y2786D01*
X23681Y1286D02*
X23482Y1186D01*
X23282Y986D01*
Y786D01*
X23382Y686D01*
X23581D01*
X23681Y786D01*
Y886D01*
X23581Y986D01*
X23282D01*
X23881Y686D02*
X24081D01*
X23981D01*
Y1286D01*
X23881Y1186D01*
X24981Y1286D02*
X25381D01*
X25181D01*
Y686D01*
X25681D02*
X25881D01*
X25981Y786D01*
Y986D01*
X25881Y1086D01*
X25681D01*
X25581Y986D01*
Y786D01*
X25681Y686D01*
X26281Y1186D02*
Y1086D01*
X26181D01*
X26381D01*
X26281D01*
Y786D01*
X26381Y686D01*
X26780Y1086D02*
X26980D01*
X27080Y986D01*
Y686D01*
X26780D01*
X26680Y786D01*
X26780Y886D01*
X27080D01*
X27280Y686D02*
X27480D01*
X27380D01*
Y1286D01*
X27280D01*
X23681Y8186D02*
X23282D01*
X23681Y8586D01*
Y8686D01*
X23581Y8786D01*
X23382D01*
X23282Y8686D01*
Y7186D02*
X23382Y7286D01*
X23581D01*
X23681Y7186D01*
Y7086D01*
X23581Y6986D01*
X23482D01*
X23581D01*
X23681Y6886D01*
Y6786D01*
X23581Y6686D01*
X23382D01*
X23282Y6786D01*
X23581Y5186D02*
Y5786D01*
X23282Y5486D01*
X23681D01*
Y4286D02*
X23482Y4186D01*
X23282Y3986D01*
Y3786D01*
X23382Y3686D01*
X23581D01*
X23681Y3786D01*
Y3886D01*
X23581Y3986D01*
X23282D01*
X23581Y2186D02*
Y2786D01*
X23282Y2486D01*
X23681D01*
X24281Y2786D02*
X24081Y2686D01*
X23881Y2486D01*
Y2286D01*
X23981Y2186D01*
X24181D01*
X24281Y2286D01*
Y2386D01*
X24181Y2486D01*
X23881D01*
D61*
X18504Y3936D02*
G03*
X18504Y3936I-250J0D01*
G01*
X1860Y4370D02*
G03*
X1860Y4370I-167J0D01*
G01*
X2360Y3370D02*
G03*
X2360Y3370I-167J0D01*
G01*
X2860Y4370D02*
G03*
X2860Y4370I-167J0D01*
G01*
X3360Y3370D02*
G03*
X3360Y3370I-167J0D01*
G01*
X3860Y4370D02*
G03*
X3860Y4370I-167J0D01*
G01*
X4360Y3370D02*
G03*
X4360Y3370I-167J0D01*
G01*
X18004Y8186D02*
X18254Y8311D01*
X18504Y8186D01*
X18379Y8436D02*
X18504Y8186D01*
X18379Y8436D02*
X18504Y8686D01*
X18254Y8561D02*
X18504Y8686D01*
X18004D02*
X18254Y8561D01*
X18004Y8686D02*
X18129Y8436D01*
X18004Y8186D02*
X18129Y8436D01*
Y6811D02*
X18254Y6686D01*
X18004Y6811D02*
X18129D01*
X18004D02*
X18129Y6936D01*
X18004Y7061D02*
X18129Y6936D01*
X18004Y7061D02*
X18129D01*
X18254Y7186D01*
X18379Y7061D01*
X18504D01*
X18379Y6936D02*
X18504Y7061D01*
X18379Y6936D02*
X18504Y6811D01*
X18379D02*
X18504D01*
X18254Y6686D02*
X18379Y6811D01*
X18254Y5186D02*
X18504Y5686D01*
X18004D02*
X18504D01*
X18004D02*
X18254Y5186D01*
X18004Y2186D02*
X18504D01*
Y2686D01*
X18004D02*
X18504D01*
X18004Y2186D02*
Y2686D01*
X306Y8337D02*
X639D01*
Y8671D01*
X306D02*
X639D01*
X306Y8337D02*
Y8671D01*
X13062Y11054D02*
X13395D01*
Y11387D01*
X13062D02*
X13395D01*
X13062Y11054D02*
Y11387D01*
Y11644D02*
X13395D01*
Y11978D01*
X13062D02*
X13395D01*
X13062Y11644D02*
Y11978D01*
Y12235D02*
X13395D01*
Y12568D01*
X13062D02*
X13395D01*
X13062Y12235D02*
Y12568D01*
X12196Y12235D02*
X12529D01*
Y12568D01*
X12196D02*
X12529D01*
X12196Y12235D02*
Y12568D01*
Y11644D02*
X12529D01*
Y11978D01*
X12196D02*
X12529D01*
X12196Y11644D02*
Y11978D01*
Y11054D02*
X12529D01*
Y11387D01*
X12196D02*
X12529D01*
X12196Y11054D02*
Y11387D01*
X10629Y11534D02*
X10962D01*
Y11867D01*
X10629D02*
X10962D01*
X10629Y11534D02*
Y11867D01*
X10062Y11534D02*
X10395D01*
Y11867D01*
X10062D02*
X10395D01*
X10062Y11534D02*
Y11867D01*
X14597Y13416D02*
X14930D01*
Y13749D01*
X14597D02*
X14930D01*
X14597Y13416D02*
Y13749D01*
Y12825D02*
X14930D01*
Y13159D01*
X14597D02*
X14930D01*
X14597Y12825D02*
Y13159D01*
X14597Y12235D02*
X14930D01*
Y12568D01*
X14597D02*
X14930D01*
X14597Y12235D02*
Y12568D01*
X9912Y7314D02*
X10245D01*
Y7647D01*
X9912D02*
X10245D01*
X9912Y7314D02*
Y7647D01*
X13101Y7314D02*
X13434D01*
Y7647D01*
X13101D02*
X13434D01*
X13101Y7314D02*
Y7647D01*
Y7904D02*
X13434D01*
Y8238D01*
X13101D02*
X13434D01*
X13101Y7904D02*
Y8238D01*
X188Y6762D02*
X521D01*
Y7096D01*
X188D02*
X521D01*
X188Y6762D02*
Y7096D01*
X8928Y16959D02*
X9261D01*
Y17293D01*
X8928D02*
X9261D01*
X8928Y16959D02*
Y17293D01*
X5109Y12471D02*
X5442D01*
Y12804D01*
X5109D02*
X5442D01*
X5109Y12471D02*
Y12804D01*
X5070Y11841D02*
X5403D01*
Y12175D01*
X5070D02*
X5403D01*
X5070Y11841D02*
Y12175D01*
X385Y10385D02*
X718D01*
Y10718D01*
X385D02*
X718D01*
X385Y10385D02*
Y10718D01*
X857Y10542D02*
X1190D01*
Y10875D01*
X857D02*
X1190D01*
X857Y10542D02*
Y10875D01*
X6723Y11841D02*
X7056D01*
Y12175D01*
X6723D02*
X7056D01*
X6723Y11841D02*
Y12175D01*
Y12471D02*
X7056D01*
Y12804D01*
X6723D02*
X7056D01*
X6723Y12471D02*
Y12804D01*
X2117Y13065D02*
X2450D01*
Y13399D01*
X2117D02*
X2450D01*
X2117Y13065D02*
Y13399D01*
X3022Y16054D02*
X3356D01*
Y16387D01*
X3022D02*
X3356D01*
X3022Y16054D02*
Y16387D01*
X5896Y16054D02*
X6230D01*
Y16387D01*
X5896D02*
X6230D01*
X5896Y16054D02*
Y16387D01*
X6841Y13101D02*
X7175D01*
Y13434D01*
X6841D02*
X7175D01*
X6841Y13101D02*
Y13434D01*
X7707Y13967D02*
X8041D01*
Y14301D01*
X7707D02*
X8041D01*
X7707Y13967D02*
Y14301D01*
Y15621D02*
X8041D01*
Y15954D01*
X7707D02*
X8041D01*
X7707Y15621D02*
Y15954D01*
X7274Y16054D02*
X7608D01*
Y16387D01*
X7274D02*
X7608D01*
X7274Y16054D02*
Y16387D01*
X4479Y16054D02*
X4812D01*
Y16387D01*
X4479D02*
X4812D01*
X4479Y16054D02*
Y16387D01*
X1684Y16054D02*
X2017D01*
Y16387D01*
X1684D02*
X2017D01*
X1684Y16054D02*
Y16387D01*
X1251Y15581D02*
X1584D01*
Y15915D01*
X1251D02*
X1584D01*
X1251Y15581D02*
Y15915D01*
Y13931D02*
X1584D01*
Y14265D01*
X1251D02*
X1584D01*
X1251Y13931D02*
Y14265D01*
X3065Y12117D02*
X3399D01*
Y12450D01*
X3065D02*
X3399D01*
X3065Y12117D02*
Y12450D01*
X4007Y12117D02*
X4340D01*
Y12450D01*
X4007D02*
X4340D01*
X4007Y12117D02*
Y12450D01*
X1684Y6920D02*
X2017D01*
Y7253D01*
X1684D02*
X2017D01*
X1684Y6920D02*
Y7253D01*
X8022Y8140D02*
X8356D01*
Y8474D01*
X8022D02*
X8356D01*
X8022Y8140D02*
Y8474D01*
Y8770D02*
X8356D01*
Y9104D01*
X8022D02*
X8356D01*
X8022Y8770D02*
Y9104D01*
X7432Y9991D02*
X7765D01*
Y10324D01*
X7432D02*
X7765D01*
X7432Y9991D02*
Y10324D01*
X4991Y5070D02*
X5324D01*
Y5403D01*
X4991D02*
X5324D01*
X4991Y5070D02*
Y5403D01*
X4361Y5070D02*
X4694D01*
Y5403D01*
X4361D02*
X4694D01*
X4361Y5070D02*
Y5403D01*
X3633Y22392D02*
X3966D01*
Y22726D01*
X3633D02*
X3966D01*
X3633Y22392D02*
Y22726D01*
X12904Y22392D02*
X13238D01*
Y22726D01*
X12904D02*
X13238D01*
X12904Y22392D02*
Y22726D01*
X15444Y22392D02*
X15777D01*
Y22726D01*
X15444D02*
X15777D01*
X15444Y22392D02*
Y22726D01*
X1507Y22392D02*
X1840D01*
Y22726D01*
X1507D02*
X1840D01*
X1507Y22392D02*
Y22726D01*
X13819Y6140D02*
X13986Y6474D01*
X13652D02*
X13986D01*
X13652D02*
X13819Y6140D01*
X15197Y4172D02*
X15364Y4505D01*
X15030D02*
X15364D01*
X15030D02*
X15197Y4172D01*
X10197Y6140D02*
X10364Y6474D01*
X10030D02*
X10364D01*
X10030D02*
X10197Y6140D01*
X11575Y4172D02*
X11741Y4505D01*
X11408D02*
X11741D01*
X11408D02*
X11575Y4172D01*
X5901Y21452D02*
X5984Y21369D01*
X5818Y21452D02*
X5901D01*
X5818D02*
X5901Y21535D01*
X5818Y21619D02*
X5901Y21535D01*
X5818Y21619D02*
X5901D01*
X5984Y21702D01*
X6068Y21619D01*
X6151D01*
X6068Y21535D02*
X6151Y21619D01*
X6068Y21535D02*
X6151Y21452D01*
X6068D02*
X6151D01*
X5984Y21369D02*
X6068Y21452D01*
X7869D02*
X7953Y21369D01*
X7786Y21452D02*
X7869D01*
X7786D02*
X7869Y21535D01*
X7786Y21619D02*
X7869Y21535D01*
X7786Y21619D02*
X7869D01*
X7953Y21702D01*
X8036Y21619D01*
X8119D01*
X8036Y21535D02*
X8119Y21619D01*
X8036Y21535D02*
X8119Y21452D01*
X8036D02*
X8119D01*
X7953Y21369D02*
X8036Y21452D01*
X9838D02*
X9921Y21369D01*
X9755Y21452D02*
X9838D01*
X9755D02*
X9838Y21535D01*
X9755Y21619D02*
X9838Y21535D01*
X9755Y21619D02*
X9838D01*
X9921Y21702D01*
X10005Y21619D01*
X10088D01*
X10005Y21535D02*
X10088Y21619D01*
X10005Y21535D02*
X10088Y21452D01*
X10005D02*
X10088D01*
X9921Y21369D02*
X10005Y21452D01*
X4778Y699D02*
X4945Y783D01*
X5112Y699D01*
X5028Y866D02*
X5112Y699D01*
X5028Y866D02*
X5112Y1033D01*
X4945Y949D02*
X5112Y1033D01*
X4778D02*
X4945Y949D01*
X4778Y1033D02*
X4862Y866D01*
X4778Y699D02*
X4862Y866D01*
X778Y699D02*
X945Y783D01*
X1112Y699D01*
X1028Y866D02*
X1112Y699D01*
X1028Y866D02*
X1112Y1033D01*
X945Y949D02*
X1112Y1033D01*
X778D02*
X945Y949D01*
X778Y1033D02*
X862Y866D01*
X778Y699D02*
X862Y866D01*
D62*
X17323Y9236D02*
X56113D01*
X17323Y1736D02*
X56113D01*
X17323Y236D02*
X56113D01*
Y10736D01*
X17323D02*
X56113D01*
X17323Y236D02*
Y10736D01*
X48325Y236D02*
Y10736D01*
X43266Y236D02*
Y10736D01*
X29810Y236D02*
Y10736D01*
X22832Y236D02*
Y10736D01*
D63*
X48775Y10406D02*
Y9686D01*
Y10046D01*
X49254D01*
Y10406D01*
Y9686D01*
X49614D02*
X49854D01*
X49974Y9806D01*
Y10046D01*
X49854Y10166D01*
X49614D01*
X49494Y10046D01*
Y9806D01*
X49614Y9686D01*
X50214D02*
X50454D01*
X50334D01*
Y10406D01*
X50214D01*
X51174Y9686D02*
X50934D01*
X50814Y9806D01*
Y10046D01*
X50934Y10166D01*
X51174D01*
X51294Y10046D01*
Y9926D01*
X50814D01*
X52253Y10406D02*
X52733D01*
X52493D01*
Y9686D01*
X52973Y10166D02*
Y9806D01*
X53093Y9686D01*
X53453D01*
Y9566D01*
X53333Y9446D01*
X53213D01*
X53453Y9686D02*
Y10166D01*
X53693Y9446D02*
Y10166D01*
X54053D01*
X54173Y10046D01*
Y9806D01*
X54053Y9686D01*
X53693D01*
X54773D02*
X54533D01*
X54413Y9806D01*
Y10046D01*
X54533Y10166D01*
X54773D01*
X54893Y10046D01*
Y9926D01*
X54413D01*
X43716Y9686D02*
Y10406D01*
X44076D01*
X44196Y10286D01*
Y10046D01*
X44076Y9926D01*
X43716D01*
X44436Y9686D02*
X44675D01*
X44556D01*
Y10406D01*
X44436D01*
X45155Y10166D02*
X45395D01*
X45515Y10046D01*
Y9686D01*
X45155D01*
X45035Y9806D01*
X45155Y9926D01*
X45515D01*
X45875Y10286D02*
Y10166D01*
X45755D01*
X45995D01*
X45875D01*
Y9806D01*
X45995Y9686D01*
X46715D02*
X46475D01*
X46355Y9806D01*
Y10046D01*
X46475Y10166D01*
X46715D01*
X46835Y10046D01*
Y9926D01*
X46355D01*
X47555Y10406D02*
Y9686D01*
X47195D01*
X47075Y9806D01*
Y10046D01*
X47195Y10166D01*
X47555D01*
X30740Y10406D02*
X30260D01*
Y10046D01*
X30500D01*
X30260D01*
Y9686D01*
X30979D02*
X31219D01*
X31099D01*
Y10166D01*
X30979D01*
X31579Y9686D02*
Y10166D01*
X31939D01*
X32059Y10046D01*
Y9686D01*
X32299D02*
X32539D01*
X32419D01*
Y10166D01*
X32299D01*
X32899Y9686D02*
X33259D01*
X33379Y9806D01*
X33259Y9926D01*
X33019D01*
X32899Y10046D01*
X33019Y10166D01*
X33379D01*
X33619Y10406D02*
Y9686D01*
Y10046D01*
X33739Y10166D01*
X33979D01*
X34098Y10046D01*
Y9686D01*
X34698D02*
X34458D01*
X34338Y9806D01*
Y10046D01*
X34458Y10166D01*
X34698D01*
X34818Y10046D01*
Y9926D01*
X34338D01*
X35538Y10406D02*
Y9686D01*
X35178D01*
X35058Y9806D01*
Y10046D01*
X35178Y10166D01*
X35538D01*
X36498Y10406D02*
Y9686D01*
Y10046D01*
X36978D01*
Y10406D01*
Y9686D01*
X37337D02*
X37577D01*
X37697Y9806D01*
Y10046D01*
X37577Y10166D01*
X37337D01*
X37217Y10046D01*
Y9806D01*
X37337Y9686D01*
X37937D02*
X38177D01*
X38057D01*
Y10406D01*
X37937D01*
X38897Y9686D02*
X38657D01*
X38537Y9806D01*
Y10046D01*
X38657Y10166D01*
X38897D01*
X39017Y10046D01*
Y9926D01*
X38537D01*
X40456Y10286D02*
X40336Y10406D01*
X40097D01*
X39977Y10286D01*
Y10166D01*
X40097Y10046D01*
X40336D01*
X40456Y9926D01*
Y9806D01*
X40336Y9686D01*
X40097D01*
X39977Y9806D01*
X40696Y9686D02*
X40936D01*
X40816D01*
Y10166D01*
X40696D01*
X41296D02*
X41776D01*
X41296Y9686D01*
X41776D01*
X42376D02*
X42136D01*
X42016Y9806D01*
Y10046D01*
X42136Y10166D01*
X42376D01*
X42496Y10046D01*
Y9926D01*
X42016D01*
X23282Y10406D02*
Y9686D01*
Y10046D01*
X23761D01*
Y10406D01*
Y9686D01*
X24001D02*
X24241D01*
X24121D01*
Y10166D01*
X24001D01*
X24721Y10286D02*
Y10166D01*
X24601D01*
X24841D01*
X24721D01*
Y9806D01*
X24841Y9686D01*
X26401Y10286D02*
X26281Y10406D01*
X26041D01*
X25921Y10286D01*
Y9806D01*
X26041Y9686D01*
X26281D01*
X26401Y9806D01*
X26760Y9686D02*
X27000D01*
X27120Y9806D01*
Y10046D01*
X27000Y10166D01*
X26760D01*
X26641Y10046D01*
Y9806D01*
X26760Y9686D01*
X27360Y10166D02*
Y9806D01*
X27480Y9686D01*
X27840D01*
Y10166D01*
X28080Y9686D02*
Y10166D01*
X28440D01*
X28560Y10046D01*
Y9686D01*
X28920Y10286D02*
Y10166D01*
X28800D01*
X29040D01*
X28920D01*
Y9806D01*
X29040Y9686D01*
X18703Y10286D02*
X18583Y10406D01*
X18343D01*
X18223Y10286D01*
Y10166D01*
X18343Y10046D01*
X18583D01*
X18703Y9926D01*
Y9806D01*
X18583Y9686D01*
X18343D01*
X18223Y9806D01*
X18943Y10166D02*
Y9806D01*
X19063Y9686D01*
X19422D01*
Y9566D01*
X19302Y9446D01*
X19183D01*
X19422Y9686D02*
Y10166D01*
X19662Y9686D02*
Y10166D01*
X19782D01*
X19902Y10046D01*
Y9686D01*
Y10046D01*
X20022Y10166D01*
X20142Y10046D01*
Y9686D01*
X20382Y10406D02*
Y9686D01*
X20742D01*
X20862Y9806D01*
Y9926D01*
Y10046D01*
X20742Y10166D01*
X20382D01*
X21222Y9686D02*
X21462D01*
X21582Y9806D01*
Y10046D01*
X21462Y10166D01*
X21222D01*
X21102Y10046D01*
Y9806D01*
X21222Y9686D01*
X21822D02*
X22062D01*
X21942D01*
Y10406D01*
X21822D01*
M02*
