M48
;Layer_Color=9474304
;FILE_FORMAT=2:4
INCH,LZ
;TYPE=PLATED
T1F00S00C0.0157
T2F00S00C0.0354
T3F00S00C0.0394
T4F00S00C0.0472
T5F00S00C0.1299
;TYPE=NON_PLATED
%
T01
X004528Y005236
X005157
X008189Y008307
Y008937
X007598Y010157
X00689Y012008
Y012638
X007008Y013268
X007874Y014134
Y015787
X007441Y01622
X006063
X009094Y017126
X010228Y011701
X010795
X012362Y011811
Y012402
X013228
Y011811
Y01122
X012362
X014764Y012402
X014764Y012992
Y013583
X013268Y008071
Y00748
X010079Y00748
X00185Y007087
X000354Y006929
X000472Y008504
X000551Y010551
X001024Y010709
X003232Y012283
X004173
X005236Y012008
X005276Y012638
X002283Y013232
X001417Y014098
Y015748
X00185Y01622
X003189
X004646
X003799Y022559
X001673
X013071
X01561
T02
X002193Y00337
X003193
X004193
X003693Y00437
X002693
X001693
T03
X011575Y004339
X015197
X013819Y006307
X010197
T04
X005984Y021535
X007953
X009921
T05
X000945Y000866
X004945
M30
